<?xml version="1.0" standalone="no"?>
<!DOCTYPE svg PUBLIC "-//W3C//DTD SVG 20010904//EN"
 "http://www.w3.org/TR/2001/REC-SVG-20010904/DTD/svg10.dtd">
<svg version="1.0" xmlns="http://www.w3.org/2000/svg"
 width="2186.000000pt" height="1221.000000pt" viewBox="0 0 2186.000000 1221.000000"
 preserveAspectRatio="xMidYMid meet">
<metadata>
Created by potrace 1.16, written by Peter Selinger 2001-2019
</metadata>
<g transform="translate(0.000000,1221.000000) scale(0.100000,-0.100000)"
fill="#000000" stroke="none">
<path d="M14400 10314 c-329 -24 -706 -104 -975 -207 -641 -246 -1174 -669
-1567 -1243 -201 -293 -326 -564 -434 -938 -18 -65 -36 -121 -38 -123 -2 -2
-19 9 -37 25 -61 53 -133 92 -215 118 -46 14 -89 34 -101 47 -37 39 -81 130
-102 210 -12 43 -30 96 -41 116 -27 54 -111 126 -189 162 -36 17 -76 35 -89
42 -47 23 -101 139 -157 341 -34 121 -94 143 -232 81 -209 -93 -243 -117 -344
-245 -45 -58 -116 -141 -158 -185 -42 -44 -105 -123 -139 -177 -43 -65 -71
-98 -87 -102 -13 -3 -36 -22 -51 -42 -15 -19 -69 -60 -120 -90 -85 -51 -101
-57 -190 -69 -72 -10 -102 -19 -119 -35 -34 -32 -56 -127 -65 -279 -10 -154
-14 -175 -46 -213 -12 -15 -36 -52 -54 -83 -24 -41 -37 -55 -54 -55 -32 0
-131 -35 -174 -62 -20 -13 -59 -34 -87 -48 -38 -20 -52 -33 -60 -58 -5 -17
-14 -32 -20 -32 -6 0 -27 -27 -45 -61 -51 -90 -71 -99 -318 -148 -177 -36
-210 -55 -332 -196 -138 -158 -192 -203 -341 -279 -98 -50 -159 -89 -238 -155
-142 -117 -197 -155 -272 -191 -124 -58 -173 -98 -216 -175 -7 -12 -22 -12
-103 1 -131 22 -429 14 -550 -14 -415 -98 -759 -348 -992 -724 -187 -301 -280
-694 -250 -1055 23 -259 71 -436 182 -658 86 -172 175 -299 300 -425 310 -315
704 -473 1141 -458 l140 5 35 -64 c65 -115 133 -161 250 -171 86 -6 120 7 323
132 96 58 176 104 179 102 2 -3 -7 -35 -22 -71 -53 -133 -22 -241 86 -296 50
-26 137 -25 188 1 21 11 42 25 45 31 5 7 12 6 23 -4 41 -36 82 -47 167 -47 85
0 126 11 166 47 14 12 22 11 64 -11 26 -14 69 -28 95 -32 38 -5 53 -13 70 -36
69 -93 261 -88 323 8 30 47 73 60 131 40 36 -12 91 -16 253 -15 232 1 275 9
347 63 l44 34 28 -30 c60 -64 161 -85 243 -52 35 14 44 14 84 0 36 -12 79 -14
204 -11 87 2 169 4 183 3 14 0 338 -1 720 -1 382 1 711 1 730 1 19 0 177 -1
351 -2 l316 -1 60 31 61 32 5 -27 c23 -112 184 -179 296 -121 46 23 68 48 100
118 24 52 25 52 45 33 53 -48 107 -65 221 -69 98 -3 113 -6 135 -27 53 -49
110 -70 202 -73 76 -4 93 -1 146 23 33 15 71 38 83 51 19 20 32 24 83 24 34 1
84 8 111 18 48 16 52 16 85 -1 28 -14 49 -17 105 -12 39 3 81 5 95 4 14 -1
203 -2 420 -3 l395 -1 49 24 c103 51 169 148 170 251 3 269 -116 418 -327 409
-73 -3 -73 -3 -130 41 l-57 45 87 18 c107 21 161 47 207 97 91 101 102 178 57
393 -17 81 -31 151 -31 156 0 5 33 12 73 16 39 4 137 18 217 31 1147 192 2119
993 2540 2096 102 266 147 441 189 733 66 456 49 775 -68 1271 -21 88 -45 173
-53 190 -8 16 -25 62 -37 102 -82 273 -313 685 -547 977 -314 390 -794 749
-1259 942 -299 124 -616 209 -925 248 -122 15 -481 27 -590 19z m400 -124
c194 -15 304 -30 463 -66 83 -19 172 -39 197 -44 179 -40 591 -220 806 -353
372 -230 659 -493 924 -845 131 -175 353 -564 389 -682 7 -25 24 -72 38 -104
31 -77 105 -358 138 -526 14 -73 30 -200 35 -284 5 -83 12 -178 15 -211 7 -70
-9 -318 -31 -489 -66 -512 -298 -1067 -631 -1508 -230 -304 -464 -525 -782
-736 -155 -103 -430 -247 -596 -312 -268 -106 -596 -183 -873 -207 -72 -6 -73
-6 -67 -31 81 -323 98 -493 57 -569 -53 -101 -112 -141 -247 -168 -125 -25
-121 -22 -67 -62 26 -20 54 -44 64 -53 13 -14 29 -16 91 -12 128 8 216 -36
270 -136 29 -54 52 -172 51 -262 -1 -102 -61 -192 -160 -241 -48 -24 -55 -24
-351 -26 -174 -1 -305 1 -308 7 -3 5 -17 5 -35 -1 -16 -6 -58 -8 -92 -5 -88 8
-97 8 -155 0 -60 -7 -116 1 -136 20 -11 12 -23 11 -71 -5 -38 -13 -78 -19
-115 -17 -50 3 -58 0 -78 -23 -12 -14 -50 -38 -83 -53 -55 -25 -71 -28 -148
-24 -93 3 -150 24 -202 74 -23 21 -36 24 -135 27 -97 3 -116 6 -163 30 -28 15
-58 36 -64 47 -16 25 -28 26 -28 3 -1 -10 -15 -45 -33 -78 -42 -77 -87 -105
-173 -105 -45 0 -73 6 -105 23 -48 26 -89 84 -89 129 l0 28 -46 -29 c-72 -46
-112 -50 -434 -46 -162 2 -308 4 -325 3 -29 -1 -481 -1 -520 0 -11 0 -172 -1
-359 -3 -186 -2 -348 0 -361 5 -14 5 -26 5 -33 -2 -6 -6 -39 -7 -83 -4 -41 3
-85 5 -99 5 -349 -5 -365 -4 -391 13 -24 17 -27 17 -64 -2 -47 -24 -121 -26
-173 -4 -43 18 -92 61 -92 82 0 9 -14 2 -37 -18 -80 -71 -101 -75 -370 -75
-180 0 -245 3 -254 13 -29 28 -107 4 -130 -41 -49 -97 -251 -103 -318 -8 -14
19 -31 31 -45 31 -38 0 -121 28 -143 49 -19 18 -23 18 -34 5 -30 -37 -86 -54
-174 -54 -88 0 -157 22 -168 52 -3 10 -9 9 -23 -3 -79 -68 -222 -64 -285 7
-58 66 -63 146 -18 263 l32 80 93 56 c154 93 189 145 189 280 0 87 -2 94 -42
171 l-41 79 20 25 c11 14 24 24 28 23 4 -1 18 -4 31 -7 13 -2 53 -14 88 -25
35 -12 67 -18 72 -15 5 3 9 1 9 -3 0 -14 251 -86 261 -75 6 6 77 231 111 350
l9 32 255 -2 256 -3 43 -120 c24 -66 47 -132 50 -146 6 -25 8 -26 43 -18 20 5
57 14 82 19 25 5 85 19 134 30 49 11 92 17 96 15 5 -3 11 -19 15 -35 l7 -30
259 0 259 0 0 128 c0 70 4 122 8 116 12 -18 140 -103 206 -136 144 -73 230
-98 363 -108 69 -5 148 -6 176 -3 l49 6 -6 186 c-4 102 -9 214 -12 249 l-6 62
-97 0 c-53 0 -119 6 -146 14 -28 7 -57 15 -65 17 -16 4 -90 69 -90 78 0 4 31
30 68 58 77 58 252 236 252 254 0 7 9 22 19 33 31 33 73 126 87 191 26 117 13
320 -27 455 -47 161 -171 307 -326 388 -82 42 -179 75 -194 66 -5 -3 -9 -1 -9
4 0 23 -217 45 -486 50 l-271 4 -6 -383 c-13 -731 -21 -994 -28 -964 -25 107
-90 394 -194 860 -8 33 -25 112 -40 175 -14 63 -32 147 -41 185 -8 39 -17 78
-20 88 -5 16 -29 17 -327 17 l-322 0 -41 -52 c-32 -41 -50 -83 -83 -186 -23
-73 -39 -138 -35 -144 4 -6 3 -8 -3 -5 -5 3 -35 -76 -68 -181 -32 -103 -62
-194 -66 -202 -10 -19 -11 -16 -34 100 -9 47 -29 124 -45 173 -16 49 -24 90
-19 93 11 7 474 526 507 568 12 16 29 53 38 83 l15 53 74 0 73 0 74 61 c134
113 364 254 579 358 97 46 142 75 195 123 38 35 92 83 121 106 44 36 113 125
113 145 0 14 -46 6 -79 -14 -18 -11 -64 -47 -102 -79 -74 -64 -171 -115 -246
-130 -26 -5 -86 -25 -133 -44 -101 -42 -128 -45 -134 -13 -32 156 -41 176 -97
216 -37 27 -112 51 -160 51 -11 0 -31 -12 -45 -27 -13 -14 -26 -24 -28 -22 -1
2 -36 71 -76 153 -61 126 -130 299 -130 327 0 5 21 23 48 41 26 18 84 67 129
109 59 55 96 82 135 96 29 11 88 32 132 48 103 37 149 73 220 175 93 136 114
188 122 305 8 128 28 176 87 204 48 23 209 83 212 79 1 -2 8 -21 16 -43 29
-79 43 -63 123 139 53 133 107 216 204 313 49 49 119 129 156 178 38 50 83
103 100 118 54 50 117 90 127 80 5 -5 -13 -54 -41 -114 -27 -58 -52 -124 -56
-147 -6 -39 -5 -42 29 -62 21 -13 34 -27 31 -35 -6 -16 21 -181 41 -249 8 -27
15 -56 15 -63 0 -7 -23 -38 -51 -69 -28 -31 -56 -68 -62 -83 -12 -26 -28 -50
-79 -118 -20 -25 -28 -48 -28 -74 0 -51 22 -52 64 -2 63 76 139 140 209 178
40 21 87 52 104 68 18 17 35 28 38 25 10 -9 -62 -187 -99 -248 -20 -32 -36
-61 -36 -64 0 -4 -4 -12 -10 -19 -55 -67 -63 -82 -68 -122 -4 -37 -2 -45 12
-45 9 0 23 8 32 19 9 10 32 35 50 55 19 20 42 53 53 74 10 20 28 46 40 56 33
30 59 77 101 183 21 54 43 99 48 101 6 2 13 -10 17 -26 7 -32 -55 -239 -105
-347 -15 -33 -74 -119 -132 -191 -58 -71 -158 -200 -223 -285 -64 -85 -151
-192 -193 -238 -173 -191 -219 -320 -72 -203 57 46 231 223 273 279 18 23 37
43 42 43 6 0 67 61 135 135 68 74 128 135 132 135 32 0 8 -98 -56 -224 -59
-116 -78 -196 -47 -196 20 0 101 55 101 69 0 5 21 37 46 70 34 45 49 59 58 51
24 -19 -34 -213 -82 -273 -5 -6 -13 -23 -17 -37 -4 -14 -14 -32 -22 -41 -9
-11 -13 -34 -11 -65 3 -47 4 -49 32 -47 17 1 40 13 54 28 13 15 25 25 27 23 2
-2 -1 -23 -5 -48 -14 -73 -11 -142 8 -179 27 -53 71 -65 217 -55 164 11 234 9
345 -10 118 -20 130 -24 130 -40 0 -9 -31 -16 -103 -23 -82 -7 -117 -16 -168
-40 -89 -44 -254 -155 -254 -173 0 -23 81 -16 145 12 69 31 172 45 164 23 -8
-20 -56 -48 -141 -79 -39 -15 -77 -34 -84 -42 -18 -22 -222 -82 -339 -99 -110
-16 -352 -75 -398 -97 -16 -8 -27 -21 -27 -33 0 -16 -13 -23 -80 -38 -95 -22
-112 -33 -59 -42 199 -31 365 -84 479 -152 60 -35 60 -35 90 -17 107 64 52 59
690 62 l580 2 64 33 65 32 333 0 c192 0 333 4 333 9 0 5 -10 23 -23 40 -51 69
-98 158 -150 287 -70 173 -138 313 -182 375 -55 76 -44 105 23 64 18 -11 35
-20 37 -20 3 0 5 21 5 48 l0 47 -117 113 c-83 80 -113 116 -106 123 15 15 76
-5 128 -42 43 -31 153 -69 198 -69 33 0 95 30 121 59 24 27 107 28 151 3 74
-43 95 -58 95 -68 0 -6 13 -29 29 -51 16 -23 42 -65 56 -94 15 -30 37 -67 50
-84 38 -52 55 -93 55 -135 0 -33 -4 -42 -23 -49 -36 -14 -44 -31 -52 -110 -8
-76 -18 -79 -30 -9 -5 27 -12 38 -25 38 -48 0 -58 -52 -51 -250 l6 -165 33
-46 c30 -42 38 -47 105 -63 101 -24 228 -78 320 -136 43 -28 80 -50 82 -50 3
0 11 24 20 53 21 73 65 140 116 177 75 54 116 60 394 60 l252 0 80 102 c45 57
157 208 251 336 190 261 315 418 476 596 60 67 188 216 284 331 96 116 198
235 227 265 28 30 94 109 146 175 53 66 124 150 157 188 133 145 355 473 423
622 84 186 92 425 18 510 -44 49 -103 69 -192 63 -135 -9 -197 -53 -446 -322
-221 -238 -466 -538 -756 -926 -220 -294 -353 -462 -650 -820 -152 -184 -349
-432 -438 -551 l-160 -216 -76 40 c-91 48 -118 72 -171 150 -28 42 -40 71 -40
96 -1 48 -16 73 -67 110 -24 17 -43 35 -43 41 0 5 -14 17 -31 26 -20 10 -29
21 -27 32 3 9 88 134 188 277 101 143 252 366 336 496 83 129 182 278 220 330
37 52 88 123 111 158 51 74 164 228 315 428 133 175 210 292 250 380 43 93 51
218 19 281 -38 75 -94 93 -204 67 -181 -43 -352 -167 -645 -469 -282 -291
-444 -495 -708 -891 -116 -173 -271 -454 -329 -597 -34 -81 -34 -82 -94 -109
-33 -15 -86 -46 -117 -68 -92 -66 -148 -52 -197 52 -14 31 -40 61 -72 85 -37
28 -51 45 -53 67 -2 17 -20 50 -41 75 -21 25 -46 59 -56 75 -10 17 -34 46 -52
66 -30 32 -35 44 -40 107 -3 40 -9 72 -13 72 -5 0 -19 -25 -31 -56 -23 -55
-24 -56 -58 -50 -64 10 -95 55 -179 257 l-40 96 38 149 c85 341 215 644 402
939 87 137 218 310 297 394 34 35 61 67 61 70 0 7 140 138 279 262 73 65 258
196 398 281 269 163 658 323 919 378 55 11 128 27 164 35 68 14 213 30 410 44
156 11 235 11 370 1z m-6629 -3454 l-34 -35 7 -98 c3 -54 9 -131 12 -171 6
-67 4 -79 -24 -140 -49 -107 -65 -243 -38 -304 8 -17 -7 -18 -232 -18 -197 0
-249 -3 -292 -17 -79 -25 -136 -83 -204 -207 -57 -105 -59 -107 -80 -91 -89
66 -241 159 -311 191 -47 21 -85 41 -85 45 0 4 37 26 83 49 140 73 212 124
255 183 61 82 110 118 229 170 192 83 247 122 363 251 168 191 188 204 330
219 19 2 39 5 44 5 6 1 -5 -13 -23 -32z m129 -800 c-12 -20 -23 -36 -25 -36
-2 0 -21 11 -41 25 -34 23 -35 25 -13 26 13 0 40 6 59 13 19 8 37 12 39 10 2
-2 -7 -19 -19 -38z m-1727 23 c227 -34 492 -147 684 -292 l41 -32 -64 -122
c-36 -68 -63 -123 -60 -123 2 0 33 53 67 118 34 64 65 119 69 122 4 3 31 50
60 104 63 118 104 166 168 198 46 23 53 23 332 23 269 0 288 -1 331 -21 56
-26 111 -82 141 -143 31 -62 31 -167 2 -231 -17 -36 -323 -393 -488 -568 -57
-61 -98 -76 -226 -83 l-115 -5 103 -2 c72 -1 113 2 139 13 19 8 39 15 43 15
10 0 56 -155 81 -270 15 -71 22 -147 26 -300 5 -191 4 -215 -20 -345 -33 -178
-65 -288 -121 -414 -38 -86 -171 -319 -196 -345 -5 -5 8 -42 33 -89 34 -65 42
-92 45 -146 2 -37 -1 -85 -7 -108 -13 -49 -64 -119 -102 -142 -137 -82 -187
-116 -182 -125 3 -5 1 -6 -5 -3 -5 4 -77 -34 -158 -84 -231 -142 -236 -144
-329 -144 -131 1 -194 40 -262 165 l-37 67 -150 -5 c-514 -16 -987 218 -1289
639 -81 113 -196 339 -237 467 -241 750 34 1584 655 1984 183 119 414 204 620
231 67 9 341 6 408 -4z m6672 -104 c106 -31 137 -47 244 -124 l84 -61 -45 0
c-25 0 -65 -6 -90 -14 -41 -12 -45 -12 -41 3 5 20 -84 94 -173 144 -53 30
-100 77 -76 77 5 0 49 -11 97 -25z m120 -215 c18 0 18 -1 -4 -16 -22 -16 -24
-15 -44 6 l-22 23 25 -7 c14 -3 34 -6 45 -6z m-3530 -777 c99 -31 140 -65 180
-148 31 -63 33 -136 4 -202 -11 -26 -27 -56 -36 -65 -8 -9 -12 -22 -8 -28 3
-6 3 -9 -2 -8 -5 2 -29 -14 -54 -34 -49 -40 -134 -82 -186 -92 l-33 -5 0 304
0 304 43 -5 c23 -3 65 -12 92 -21z m-1325 -300 c0 -6 18 -78 41 -160 53 -191
89 -326 89 -335 0 -5 -72 -8 -161 -8 -148 0 -160 1 -155 18 35 109 55 186 51
192 -3 5 -2 10 2 12 8 3 33 79 81 251 26 93 28 96 39 70 7 -16 12 -33 13 -40z"/>
<path d="M13900 9725 c-187 -37 -370 -105 -562 -208 -140 -76 -168 -99 -168
-143 0 -29 3 -34 23 -34 13 0 66 26 118 57 111 67 288 152 379 183 36 12 123
37 193 56 145 39 247 81 226 95 -20 13 -133 9 -209 -6z"/>
<path d="M15243 9603 c-20 -7 -15 -51 7 -73 38 -38 70 -18 70 42 0 36 -1 38
-32 37 -18 0 -39 -3 -45 -6z"/>
<path d="M13720 9420 c-152 -41 -260 -108 -260 -161 0 -24 4 -29 25 -29 14 0
58 18 98 39 40 22 104 49 142 61 127 39 154 51 160 71 4 11 4 23 1 26 -14 14
-99 11 -166 -7z"/>
<path d="M14808 9253 c-23 -6 -24 -51 -2 -60 35 -13 72 39 42 58 -7 5 -15 8
-18 8 -3 -1 -13 -3 -22 -6z"/>
<path d="M16290 9155 c-23 -27 4 -60 97 -122 184 -121 433 -406 578 -663 65
-114 92 -150 116 -150 32 0 24 57 -24 156 -121 248 -392 568 -620 732 -87 63
-124 75 -147 47z"/>
<path d="M12912 9089 c-18 -7 -22 -14 -17 -31 8 -26 32 -48 52 -48 20 0 35 47
23 71 -12 21 -23 23 -58 8z"/>
<path d="M15177 8973 c-24 -23 10 -83 46 -83 13 0 17 10 17 45 0 43 -1 45 -28
45 -16 0 -32 -3 -35 -7z"/>
<path d="M13281 8916 c-19 -22 -9 -56 22 -79 35 -27 50 -13 51 45 1 41 0 43
-30 46 -18 2 -36 -3 -43 -12z"/>
<path d="M16411 8806 c-10 -11 -9 -21 3 -44 9 -17 20 -32 25 -34 29 -10 115
-96 188 -187 110 -139 163 -174 163 -111 0 17 -7 44 -15 60 -35 68 -236 289
-287 316 -34 18 -62 18 -77 0z"/>
<path d="M12851 8666 c-18 -22 -10 -48 21 -65 33 -19 40 -12 42 36 1 34 -2 38
-25 41 -14 2 -31 -4 -38 -12z"/>
<path d="M16479 7392 c-36 -10 -92 -33 -123 -52 -156 -94 -389 -317 -551 -525
-55 -70 -202 -248 -326 -394 -240 -283 -462 -573 -569 -743 -95 -151 -213
-391 -238 -484 -26 -95 -28 -158 -7 -239 29 -111 108 -175 215 -175 77 1 119
23 256 137 274 230 584 607 868 1056 116 183 350 504 462 633 77 90 106 132
181 265 154 272 175 461 58 519 -45 21 -150 23 -226 2z"/>
<path d="M17356 6653 c-3 -10 -10 -67 -16 -128 -17 -163 -45 -281 -110 -460
-58 -162 -86 -263 -74 -274 11 -11 75 72 111 144 46 90 108 279 127 386 19
111 40 299 35 324 -6 28 -65 34 -73 8z"/>
<path d="M16798 6579 c-10 -5 -18 -20 -18 -32 0 -49 53 -64 72 -21 20 43 -15
77 -54 53z"/>
<path d="M16842 6078 c-16 -16 -15 -43 2 -77 35 -67 75 -61 96 14 10 36 10 48
0 60 -15 18 -81 20 -98 3z"/>
<path d="M16480 5752 c0 -32 16 -52 42 -52 20 0 38 28 38 59 0 18 -6 21 -40
21 -37 0 -40 -2 -40 -28z"/>
<path d="M13511 5343 c-9 -18 -38 -114 -45 -149 -2 -11 -13 -46 -24 -79 -10
-33 -41 -135 -67 -227 -26 -92 -52 -165 -56 -162 -5 3 -9 11 -9 17 0 22 -66
151 -93 183 -15 18 -27 35 -27 39 0 31 -191 202 -211 189 -8 -4 -9 -3 -5 4 4
7 -14 22 -46 38 -186 94 -313 114 -734 114 l-324 0 0 -1046 c0 -950 1 -1046
16 -1040 9 3 119 6 245 6 l229 0 0 145 0 145 103 0 c146 1 237 20 332 69 136
70 234 125 255 143 11 10 20 14 20 10 0 -16 -42 -201 -71 -315 -17 -65 -29
-120 -27 -122 10 -9 141 -44 149 -39 5 3 9 1 9 -4 0 -7 55 -28 100 -38 3 0 17
-6 32 -12 15 -6 39 -12 55 -14 15 -2 30 -6 33 -10 3 -3 16 -9 30 -13 24 -6 27
-2 59 89 18 52 30 100 25 107 -4 7 -3 10 3 6 5 -3 24 39 42 94 l32 99 266 -2
266 -3 35 -150 c20 -82 37 -151 38 -153 1 -2 32 4 70 12 38 8 132 26 209 41
206 39 188 32 182 74 -3 20 -19 101 -36 181 -18 80 -40 188 -51 240 -20 99
-75 363 -115 560 -13 63 -38 180 -55 260 -17 80 -44 210 -60 290 -16 80 -43
210 -59 290 -17 79 -31 145 -31 147 0 2 -153 3 -340 3 -313 0 -340 -1 -349
-17z m-1036 -517 c90 -18 148 -39 205 -76 49 -32 110 -92 110 -110 0 -5 4 -10
8 -10 19 0 47 -126 46 -205 0 -72 -4 -87 -38 -153 -73 -145 -252 -281 -391
-299 -27 -3 -53 -11 -57 -17 -4 -6 -8 190 -8 437 l0 447 28 0 c15 0 59 -6 97
-14z m1405 -326 c17 -63 43 -153 57 -200 14 -47 33 -112 43 -145 10 -33 21
-70 25 -82 l6 -23 -185 0 -185 0 20 63 c11 34 31 96 45 138 14 42 27 83 28 90
2 8 8 26 14 41 6 15 12 39 14 55 2 15 6 30 9 33 4 3 19 45 34 95 32 102 28
106 75 -65z"/>
<path d="M10580 4210 l0 -1030 585 0 585 0 0 230 0 230 -330 0 -330 0 0 125 0
125 210 0 210 0 0 235 0 235 -210 0 -210 0 0 205 0 205 330 0 330 0 0 235 0
235 -585 0 -585 0 0 -1030z"/>
<path d="M15830 4619 c-13 -6 -38 -20 -55 -33 -50 -38 -133 -77 -254 -117
-111 -38 -201 -82 -201 -98 0 -5 25 -12 54 -15 48 -6 70 -2 174 33 194 64 332
142 332 186 0 27 -9 55 -19 54 -3 0 -17 -5 -31 -10z"/>
<path d="M16209 4592 c-389 -263 -541 -331 -914 -407 -189 -39 -251 -60 -222
-76 8 -5 42 -12 74 -15 95 -10 412 55 557 113 167 67 542 287 570 334 13 23
-1 69 -22 69 -9 0 -29 -8 -43 -18z"/>
<path d="M14446 2805 c-10 -15 -16 -31 -13 -38 2 -6 -10 -18 -27 -27 -39 -20
-64 -56 -81 -116 -11 -40 -13 -44 -14 -20 -2 49 -38 112 -75 130 -45 21 -64
20 -110 -5 -35 -18 -40 -19 -55 -5 -24 22 -75 30 -109 18 -21 -7 -33 -7 -40 0
-6 6 -18 8 -27 5 -13 -6 -15 -27 -13 -159 3 -150 3 -153 26 -156 22 -3 22 -2
22 117 0 113 1 121 22 135 32 23 71 20 95 -6 28 -31 35 -58 42 -163 5 -71 9
-90 21 -90 13 0 15 20 15 121 0 133 7 154 54 154 15 0 34 -6 42 -12 37 -31 43
-52 49 -156 5 -99 7 -107 25 -107 17 0 21 8 25 59 l5 60 13 -37 c25 -69 111
-99 182 -62 25 13 29 13 34 0 3 -8 15 -15 26 -15 17 0 20 7 21 48 0 35 2 42 9
26 4 -11 22 -33 40 -47 58 -49 172 -31 205 33 21 41 19 64 -9 97 -21 24 -32
28 -78 29 -93 3 -97 4 -108 24 -9 17 -6 25 14 45 46 46 112 29 130 -32 9 -30
46 -31 46 -2 0 59 -47 98 -118 99 -48 0 -58 -4 -88 -34 -42 -42 -45 -82 -9
-116 21 -20 36 -24 93 -25 37 0 73 -4 80 -8 21 -14 14 -54 -14 -76 -51 -40
-119 -21 -144 39 -8 18 -20 30 -31 30 -17 0 -19 9 -19 88 0 97 -11 123 -41 96
-13 -12 -22 -13 -38 -5 -11 6 -30 11 -42 11 -21 0 -21 1 -5 19 19 21 19 52 0
58 -6 2 -19 -8 -28 -22z m73 -121 c29 -24 31 -31 31 -89 0 -57 -3 -67 -27 -90
-78 -72 -162 -17 -150 99 3 40 11 55 36 78 39 35 71 35 110 2z"/>
<path d="M7622 2807 c-15 -18 -142 -341 -142 -361 0 -9 8 -16 19 -16 13 0 24
16 40 60 l22 60 83 0 83 0 26 -60 c20 -45 31 -60 47 -60 11 0 20 4 20 9 0 5
-34 89 -76 188 -83 194 -96 212 -122 180z m26 -215 c-33 -2 -62 -1 -64 1 -3 3
8 34 46 132 l12 30 33 -80 34 -80 -61 -3z"/>
<path d="M9347 2814 c-14 -15 -5 -45 66 -210 65 -151 76 -169 97 -169 21 0 30
17 92 175 71 182 78 210 53 210 -19 0 -26 -14 -86 -172 -28 -73 -54 -136 -58
-141 -4 -4 -36 63 -72 150 -62 148 -76 173 -92 157z"/>
<path d="M11047 2814 c-4 -4 -7 -92 -7 -196 0 -182 1 -188 20 -188 20 0 20 5
18 192 -3 180 -8 214 -31 192z"/>
<path d="M13127 2814 c-4 -4 -7 -92 -7 -196 0 -182 1 -188 20 -188 20 0 20 5
18 192 -3 180 -8 214 -31 192z"/>
<path d="M8373 2753 c-20 -7 -18 -419 1 -426 22 -9 26 2 26 70 l0 64 30 -16
c64 -33 153 -8 184 54 38 72 27 171 -24 223 -24 24 -36 28 -83 28 -40 0 -61
-6 -81 -21 -26 -20 -26 -20 -26 0 0 22 -9 30 -27 24z m168 -53 c68 -37 61
-181 -11 -220 -54 -29 -130 30 -130 101 0 90 76 153 141 119z"/>
<path d="M8886 2745 c-12 -12 -20 -13 -35 -5 -11 5 -40 10 -65 10 -79 0 -136
-69 -136 -165 0 -95 49 -155 127 -155 24 0 57 7 73 15 27 14 30 14 30 0 0 -8
9 -15 20 -15 19 0 20 7 20 159 0 88 -4 162 -9 166 -5 3 -16 -2 -25 -10z m-28
-71 c17 -20 22 -37 22 -84 0 -54 -2 -60 -35 -89 -42 -36 -72 -39 -108 -10 -45
35 -53 96 -22 172 20 50 103 56 143 11z"/>
<path d="M11336 2745 c-12 -12 -20 -13 -35 -5 -11 5 -40 10 -65 10 -79 0 -136
-69 -136 -165 0 -95 49 -155 127 -155 24 0 57 7 73 15 27 14 30 14 30 0 0 -8
9 -15 20 -15 19 0 20 7 20 159 0 88 -4 162 -9 166 -5 3 -16 -2 -25 -10z m-37
-61 c29 -24 31 -31 31 -89 0 -60 -2 -65 -35 -94 -20 -17 -46 -31 -59 -31 -57
0 -106 82 -87 146 16 53 23 64 50 79 39 21 66 18 100 -11z"/>
<path d="M11896 2745 c-12 -12 -20 -13 -35 -5 -11 5 -40 10 -65 10 -36 0 -52
-6 -80 -31 -75 -65 -75 -209 -1 -267 33 -26 102 -29 145 -7 27 14 30 14 30 0
0 -11 7 -15 23 -13 22 3 22 6 25 154 2 121 0 153 -12 163 -11 9 -17 8 -30 -4z
m-37 -61 c29 -24 31 -31 31 -89 0 -60 -2 -65 -35 -94 -45 -39 -78 -40 -116 -2
-51 52 -37 170 25 200 35 16 63 12 95 -15z"/>
<path d="M13063 2753 c-7 -3 -13 -11 -13 -19 0 -13 -3 -13 -22 0 -30 21 -103
20 -139 -1 -40 -24 -69 -87 -69 -152 0 -94 49 -151 129 -151 26 0 56 7 67 15
25 19 34 19 34 0 0 -8 9 -15 20 -15 19 0 20 7 20 159 0 88 -3 162 -7 164 -5 2
-14 2 -20 0z m-63 -58 c39 -20 50 -43 50 -105 0 -46 -4 -56 -34 -86 -39 -39
-71 -43 -109 -13 -57 44 -56 143 1 196 29 27 52 29 92 8z"/>
<path d="M13417 2745 c-13 -12 -21 -13 -36 -5 -11 5 -40 10 -65 10 -79 0 -136
-69 -136 -165 0 -95 49 -155 127 -155 24 0 57 7 73 15 26 13 30 14 30 1 0 -8
-12 -28 -26 -45 -21 -25 -34 -31 -64 -31 -31 0 -43 6 -63 31 -17 21 -30 30
-41 26 -39 -15 5 -81 65 -97 69 -19 126 6 159 69 15 28 16 339 2 353 -6 6 -16
3 -25 -7z m-29 -71 c17 -20 22 -37 22 -84 0 -54 -2 -60 -35 -89 -42 -36 -72
-39 -108 -10 -45 35 -53 96 -22 172 20 50 103 56 143 11z"/>
<path d="M7840 2590 c0 -153 1 -160 20 -160 19 0 20 7 20 113 0 105 2 115 23
135 36 34 74 38 108 12 32 -23 59 -21 59 4 0 40 -113 71 -163 45 -16 -9 -22
-9 -25 0 -2 6 -12 11 -23 11 -18 0 -19 -9 -19 -160z"/>
<path d="M8148 2735 c-14 -8 -37 -32 -49 -52 -13 -21 -30 -43 -38 -49 -13 -10
-12 -16 2 -47 9 -19 17 -43 17 -54 0 -25 34 -74 62 -89 32 -18 103 -17 138 1
52 27 82 115 40 115 -12 0 -20 -7 -20 -16 0 -27 -56 -74 -87 -74 -46 1 -93 50
-93 99 0 20 6 21 94 21 128 0 144 16 100 102 -8 15 -24 34 -36 42 -28 20 -94
20 -130 1z m103 -38 c9 -7 21 -22 28 -34 12 -23 12 -23 -70 -23 l-81 0 14 23
c28 41 79 57 109 34z"/>
<path d="M9004 2731 c-40 -25 -59 -73 -41 -110 15 -32 69 -52 120 -45 26 4 45
1 62 -10 31 -21 31 -27 -1 -65 -19 -23 -34 -31 -59 -31 -37 0 -82 31 -95 66
-10 24 -34 32 -45 14 -9 -15 21 -75 50 -98 52 -41 161 -24 199 30 18 25 21 70
6 98 -13 24 -74 44 -110 36 -39 -7 -90 11 -90 33 0 27 43 61 77 61 32 0 73
-37 73 -66 0 -8 9 -14 20 -14 32 0 27 55 -9 91 -24 24 -38 29 -78 29 -30 0
-60 -7 -79 -19z"/>
<path d="M9719 2727 c-19 -12 -41 -37 -49 -54 -8 -18 -21 -33 -28 -33 -21 0
-27 -31 -9 -42 10 -5 17 -20 17 -34 0 -38 25 -88 55 -112 38 -30 121 -31 159
-1 32 25 60 75 52 95 -9 22 -36 16 -46 -10 -14 -37 -50 -66 -83 -66 -31 0 -87
47 -87 73 0 9 -3 22 -6 31 -5 14 6 16 89 16 113 0 127 4 127 37 0 99 -108 156
-191 100z m115 -38 c47 -37 35 -49 -49 -49 -41 0 -75 4 -75 9 0 15 60 61 79
61 10 0 30 -9 45 -21z"/>
<path d="M9940 2590 c0 -153 1 -160 20 -160 19 0 20 7 20 115 0 103 2 117 21
136 14 14 30 19 57 17 55 -5 75 -46 81 -172 6 -104 21 -133 42 -79 16 42 -4
205 -31 248 -27 44 -82 63 -131 46 -23 -8 -35 -8 -37 -1 -2 5 -12 10 -23 10
-18 0 -19 -9 -19 -160z"/>
<path d="M10304 2740 c-25 -10 -74 -66 -74 -85 0 -7 -9 -15 -20 -18 -23 -6
-27 -35 -5 -43 8 -4 15 -17 15 -30 0 -38 25 -88 55 -112 20 -16 41 -22 80 -22
39 0 60 6 80 22 29 23 59 83 50 98 -10 16 -35 11 -42 -7 -3 -10 -17 -30 -31
-45 -29 -32 -66 -36 -101 -12 -21 15 -51 70 -51 94 0 6 36 10 94 10 52 0 101
3 110 6 34 13 10 94 -40 133 -28 22 -81 27 -120 11z m101 -55 c39 -38 32 -45
-50 -45 -77 0 -83 3 -62 31 33 43 78 49 112 14z"/>
<path d="M10487 2744 c-4 -4 -7 -13 -7 -20 0 -10 26 -14 96 -16 l97 -3 -97
-115 c-128 -154 -128 -154 37 -158 121 -2 127 -2 127 17 0 19 -8 21 -100 23
l-100 3 101 119 c55 66 98 127 97 135 -3 13 -23 16 -124 19 -66 1 -123 -1
-127 -4z"/>
<path d="M10788 2721 c-79 -69 -71 -219 15 -271 20 -13 50 -20 81 -20 43 0 53
4 86 38 65 64 65 172 1 244 -24 27 -36 32 -88 36 -56 4 -62 2 -95 -27z m143
-39 c25 -23 33 -38 36 -78 11 -114 -73 -173 -149 -105 -31 27 -33 34 -33 91 0
57 2 64 33 91 41 36 73 37 113 1z"/>
<path d="M11394 2737 c-2 -7 -3 -78 -2 -157 3 -137 4 -145 23 -145 19 0 20 8
23 115 2 103 4 117 23 133 44 36 105 10 124 -52 4 -13 10 -65 14 -115 5 -71 9
-91 21 -91 12 0 15 18 15 100 0 116 -6 143 -41 184 -29 35 -79 48 -124 33 -18
-7 -32 -7 -35 -1 -9 13 -35 11 -41 -4z"/>
<path d="M12018 2734 c-35 -18 -48 -43 -48 -88 0 -49 32 -69 114 -70 58 -1 96
-15 96 -36 0 -5 -12 -22 -26 -39 -43 -52 -115 -38 -149 30 -20 39 -45 38 -45
-1 0 -18 11 -42 28 -61 50 -56 165 -51 212 9 22 27 26 72 10 102 -13 24 -74
44 -111 36 -35 -7 -77 8 -86 29 -9 25 35 65 73 65 35 0 60 -19 75 -57 13 -35
39 -30 39 8 0 20 -10 40 -29 60 -25 24 -37 29 -78 29 -26 -1 -60 -7 -75 -16z"/>
<path d="M12350 2733 c0 -10 38 -78 85 -151 47 -73 85 -137 85 -142 0 -5 -10
-30 -22 -55 -19 -40 -20 -47 -8 -55 8 -5 19 -8 23 -7 13 4 176 379 177 405 0
16 -5 22 -16 20 -10 -2 -37 -49 -69 -121 -29 -65 -55 -119 -59 -120 -3 -1 -42
53 -86 121 -74 113 -110 148 -110 105z"/>
<path d="M13550 2737 c-44 -22 -70 -73 -70 -139 0 -107 50 -168 138 -168 61 0
100 24 123 73 53 118 -10 247 -119 247 -26 0 -58 -6 -72 -13z m119 -53 c80
-67 45 -214 -51 -214 -59 0 -111 87 -94 156 10 37 59 84 89 84 14 0 39 -12 56
-26z"/>
<path d="M6333 5703 c15 -2 39 -2 55 0 15 2 2 4 -28 4 -30 0 -43 -2 -27 -4z"/>
<path d="M6260 5680 c0 -5 -12 -13 -26 -16 -25 -6 -26 -9 -20 -52 8 -59 20
-72 66 -72 21 0 41 -6 44 -12 16 -34 -7 76 -24 116 -17 41 -40 62 -40 36z"/>
<path d="M7643 5668 c-19 -24 -183 -334 -183 -345 0 -6 -4 -13 -9 -15 -7 -2
-50 -77 -69 -120 -2 -5 59 -8 136 -8 l141 0 20 28 c11 15 34 41 50 57 57 59
361 404 361 409 0 4 -98 6 -219 6 -163 0 -221 -3 -228 -12z"/>
<path d="M5900 5600 c0 -5 5 -10 11 -10 5 0 7 5 4 10 -3 6 -8 10 -11 10 -2 0
-4 -4 -4 -10z"/>
<path d="M5850 5580 c-14 -4 -20 -8 -13 -9 6 -1 9 -10 6 -21 -4 -14 0 -20 11
-20 12 0 14 -7 9 -31 -6 -31 -5 -32 25 -27 21 3 33 0 37 -10 7 -19 7 -18 -12
-37 -18 -19 -8 -48 19 -53 30 -6 40 113 14 153 -9 14 -16 31 -16 40 0 8 -6 15
-14 15 -8 0 -20 2 -28 4 -7 2 -24 0 -38 -4z"/>
<path d="M6655 5546 c-19 -14 -19 -15 -2 -51 19 -41 36 -41 55 -2 10 20 10 32
2 47 -13 24 -29 25 -55 6z"/>
<path d="M6340 5490 c0 -14 5 -32 10 -40 8 -12 10 -10 10 10 0 14 -5 32 -10
40 -8 12 -10 10 -10 -10z"/>
<path d="M6253 5438 c14 -46 32 -59 42 -29 7 23 -20 71 -41 71 -10 0 -10 -8
-1 -42z"/>
<path d="M5540 5390 c-30 -28 -50 -50 -44 -50 6 0 16 -18 23 -40 6 -22 21 -44
31 -50 11 -6 20 -16 20 -23 0 -7 5 -18 12 -25 14 -14 37 12 38 44 0 11 4 24 9
30 9 9 -3 136 -14 154 -10 16 -17 12 -75 -40z"/>
<path d="M6365 5400 c3 -5 8 -10 11 -10 2 0 4 5 4 10 0 6 -5 10 -11 10 -5 0
-7 -4 -4 -10z"/>
<path d="M5955 5310 c-7 -42 -3 -64 22 -120 9 -19 18 -56 21 -82 3 -35 9 -48
20 -48 12 0 13 -3 4 -12 -9 -9 -9 -15 2 -27 7 -9 19 -33 26 -53 12 -39 27 -47
48 -26 8 8 6 17 -8 36 -15 18 -17 29 -10 42 12 22 13 30 3 29 -26 -4 -35 2
-24 15 14 16 -3 71 -19 61 -12 -7 -14 4 -10 62 1 32 -2 45 -15 49 -12 5 -13 9
-5 14 22 14 -14 99 -42 100 -3 0 -9 -18 -13 -40z"/>
<path d="M6295 5323 c4 -10 10 -26 12 -35 4 -15 23 -26 23 -14 0 16 -24 66
-32 66 -6 0 -7 -8 -3 -17z"/>
<path d="M6393 5248 c-7 -24 -15 -51 -18 -60 -5 -13 -2 -18 10 -18 14 0 15 -3
5 -15 -17 -20 -5 -33 25 -27 23 4 25 9 25 58 0 54 -13 104 -28 104 -4 0 -13
-19 -19 -42z"/>
<path d="M6770 5184 c0 -25 40 -84 56 -84 21 0 17 28 -6 42 -11 7 -20 23 -20
35 0 14 -6 23 -15 23 -8 0 -15 -7 -15 -16z"/>
<path d="M5292 5093 c-40 -64 -52 -106 -33 -117 5 -3 12 -21 15 -40 9 -45 72
-190 85 -194 6 -2 11 -12 11 -22 0 -10 9 -28 19 -41 l19 -24 11 28 c16 41 14
68 -10 116 -11 24 -23 68 -26 97 -3 30 -10 54 -16 54 -6 0 -7 15 -4 36 4 20 1
46 -5 57 -9 17 -7 23 11 35 29 20 27 56 -4 70 -14 7 -27 12 -28 12 -1 0 -21
-30 -45 -67z"/>
<path d="M5640 5066 c0 -37 32 -162 44 -171 7 -5 13 -14 14 -18 2 -19 46 -107
54 -107 5 0 6 -11 2 -25 -3 -14 -2 -31 3 -38 5 -6 11 -30 12 -52 1 -22 6 -42
12 -46 5 -3 11 -16 12 -27 2 -34 16 -26 36 21 20 47 19 101 -2 126 -8 9 -18
26 -21 39 -4 12 -12 22 -17 22 -5 0 -9 9 -9 19 0 11 -4 22 -9 25 -8 6 -32 83
-36 119 -1 11 -6 22 -11 25 -5 4 -19 28 -31 55 -21 44 -53 64 -53 33z"/>
<path d="M7246 4915 c-6 -17 13 -65 26 -65 18 0 6 -17 -19 -27 -27 -10 -26
-11 18 -12 25 -1 60 4 78 10 28 10 30 13 15 24 -9 6 -14 17 -10 23 4 7 3 12
-2 12 -5 0 -12 9 -15 20 -4 16 -11 20 -31 16 -14 -3 -28 0 -31 5 -9 14 -22 11
-29 -6z"/>
<path d="M6937 4823 c-4 -3 -7 -17 -7 -30 0 -12 -4 -23 -8 -23 -10 0 -43 -90
-37 -101 14 -21 125 27 165 71 8 9 22 19 30 23 10 4 11 6 2 6 -7 1 -27 -6 -44
-15 -44 -23 -78 -4 -78 43 0 31 -9 41 -23 26z"/>
<path d="M7367 4760 c-10 -12 -15 -25 -12 -30 4 -6 -1 -10 -9 -10 -8 0 -31
-10 -51 -21 -28 -17 -33 -24 -23 -31 10 -8 10 -11 1 -15 -7 -2 -13 -11 -13
-19 0 -8 -4 -14 -8 -14 -21 0 7 -138 32 -160 8 -6 12 -20 9 -30 -3 -12 0 -20
7 -20 9 0 7 -6 -5 -20 -17 -18 -16 -19 9 -26 32 -8 34 -21 4 -27 l-23 -4 23
-8 c22 -7 22 -8 5 -27 -14 -16 -15 -21 -3 -28 17 -10 23 -79 9 -96 -6 -7 -9
-18 -8 -26 6 -44 -3 -100 -18 -116 -19 -19 -27 -82 -11 -82 6 0 7 -8 4 -17
-12 -29 -18 -106 -11 -139 4 -26 9 -31 25 -27 14 4 20 0 20 -11 0 -10 -9 -16
-22 -17 -23 0 -23 0 1 -10 l24 -9 -24 -21 -24 -21 28 7 c17 5 27 3 27 -4 0 -6
-4 -11 -9 -11 -8 0 -7 -36 3 -105 2 -11 4 -36 5 -56 1 -31 5 -37 26 -41 14 -3
28 -1 31 3 3 5 -3 9 -13 9 -12 1 -7 6 12 14 25 11 31 19 30 42 0 16 6 39 15
51 10 13 16 37 14 62 -1 23 2 41 7 41 5 0 9 -5 9 -12 0 -9 3 -9 13 1 10 10 8
15 -6 25 -16 13 -16 14 5 20 18 5 20 8 9 15 -11 7 -10 14 5 36 14 21 15 30 6
33 -17 5 -15 22 4 22 8 0 12 4 9 10 -3 6 1 7 9 4 19 -7 21 -20 4 -28 -7 -2 -2
-4 12 -3 25 2 52 43 70 107 7 23 5 25 -21 24 -51 -2 -52 -3 -39 -19 7 -9 10
-19 6 -22 -10 -10 -27 19 -21 35 3 7 -2 15 -9 18 -8 3 -17 16 -20 30 -4 13
-13 24 -21 24 -9 0 -15 10 -15 25 0 14 -9 44 -19 66 -11 21 -15 37 -10 33 5
-3 9 2 9 11 0 9 -4 14 -9 10 -5 -3 -16 8 -24 24 -10 20 -11 31 -4 34 9 3 29
121 28 170 0 9 4 15 10 12 5 -4 9 1 9 9 0 9 -5 16 -11 16 -6 0 -9 6 -6 13 2 6
11 11 20 9 11 -2 14 3 10 18 -4 16 0 23 17 27 19 5 22 11 17 44 -3 26 -1 39 9
43 18 7 15 126 -4 126 -7 0 -12 8 -10 17 4 20 -55 63 -86 63 -12 0 -29 -9 -39
-20z"/>
<path d="M6259 4710 c-78 -41 -156 -154 -178 -258 -15 -74 -14 -205 4 -280 16
-69 50 -142 65 -142 10 0 462 310 488 334 10 10 8 27 -7 88 -26 99 -50 146
-101 192 -88 80 -196 106 -271 66z m177 -14 c65 -30 120 -79 145 -128 25 -50
62 -190 52 -199 -23 -21 -474 -329 -482 -329 -4 0 -18 21 -29 48 -59 139 -57
343 5 465 73 146 188 199 309 143z"/>
<path d="M7008 4660 c-15 -11 -33 -20 -42 -20 -14 0 -21 -12 -17 -33 1 -4 -6
-10 -14 -13 -8 -4 -15 -10 -15 -16 0 -5 5 -6 12 -2 7 4 8 3 4 -4 -4 -6 0 -37
9 -69 9 -32 18 -108 22 -168 7 -126 -9 -226 -57 -356 -16 -44 -25 -79 -20 -79
5 0 10 8 13 18 2 9 3 -5 2 -33 -1 -27 -5 -58 -10 -68 -4 -10 -5 -21 -1 -24 3
-3 0 -13 -6 -21 -10 -11 -9 -16 4 -23 10 -5 14 -17 11 -29 -3 -12 0 -20 7 -20
7 0 9 -8 5 -20 -3 -11 -3 -20 2 -20 4 0 9 -12 10 -27 1 -16 5 -63 9 -106 6
-74 6 -78 -15 -84 -22 -6 -30 -33 -9 -33 9 0 9 -3 0 -12 -16 -16 -15 -28 3
-28 12 0 13 -10 9 -47 -3 -27 -7 -79 -9 -118 -1 -38 -7 -83 -14 -99 -7 -17 -8
-33 -2 -40 5 -6 12 -30 16 -53 6 -39 9 -43 36 -43 39 0 48 26 44 123 -2 50 0
77 7 77 6 0 4 8 -4 18 -12 12 -15 31 -11 70 5 43 3 52 -11 52 -9 0 -16 5 -16
10 0 6 9 10 19 10 26 0 39 76 20 111 -15 29 -17 191 -3 210 11 14 15 33 34
168 4 35 13 67 19 70 5 4 12 55 14 115 3 84 1 111 -10 122 -8 8 -12 20 -10 27
4 9 6 9 6 0 1 -7 8 -10 16 -7 12 5 13 10 4 20 -6 7 -8 22 -4 33 5 16 3 20 -9
15 -9 -3 -16 -1 -16 5 0 6 6 11 13 11 8 0 12 14 12 38 -1 20 3 42 8 49 4 6 10
24 13 40 3 15 11 37 19 49 28 44 0 264 -34 264 -5 0 -16 2 -23 5 -8 3 -26 -3
-40 -15z m-55 -1638 c3 7 6 3 6 -10 1 -20 -1 -21 -19 -10 -11 7 -20 17 -20 22
0 4 6 3 14 -3 11 -9 15 -9 19 1z"/>
<path d="M5421 4581 c-10 -7 -8 -17 11 -51 28 -50 39 -55 49 -18 5 21 1 31
-20 52 -17 16 -31 22 -40 17z"/>
<path d="M5087 4525 c-10 -59 -8 -153 3 -160 6 -3 10 -18 10 -32 0 -15 12 -36
32 -55 27 -25 30 -33 20 -48 -9 -14 -8 -21 3 -30 8 -7 12 -16 9 -21 -9 -15 6
-49 23 -49 12 0 13 -3 3 -15 -10 -12 -9 -18 4 -31 13 -12 15 -27 10 -65 -5
-39 -3 -53 11 -69 9 -10 18 -36 19 -57 3 -45 20 -103 47 -156 24 -46 57 -150
63 -200 3 -23 15 -46 30 -60 16 -14 27 -36 30 -59 3 -21 12 -45 20 -54 9 -9
23 -28 31 -43 16 -32 125 -135 133 -126 3 3 7 34 8 68 1 34 0 56 -3 50 -7 -20
-30 -15 -36 7 -3 11 -1 20 4 20 14 0 11 26 -4 39 -10 7 -17 7 -24 0 -8 -8 -13
11 -18 63 -3 40 -22 119 -41 175 -18 56 -31 109 -28 117 3 9 -1 23 -10 31 -9
9 -16 23 -16 31 0 8 -3 14 -8 14 -10 0 -31 64 -47 147 -14 75 -63 191 -90 213
-8 7 -15 19 -15 27 0 21 -39 93 -50 93 -6 0 -10 9 -10 19 0 11 -4 22 -10 26
-5 3 -7 12 -3 20 3 8 0 15 -6 15 -6 0 -11 11 -11 24 0 13 -7 29 -15 36 -8 7
-15 20 -15 29 0 9 -7 26 -15 37 -8 12 -11 24 -8 28 3 3 1 6 -5 6 -6 0 -12 8
-14 18 -2 9 -7 -1 -11 -23z m18 -145 c3 -5 1 -10 -4 -10 -6 0 -11 5 -11 10 0
6 2 10 4 10 3 0 8 -4 11 -10z"/>
<path d="M5565 4230 c5 -8 8 -33 6 -57 -1 -24 2 -43 6 -43 4 0 9 -15 10 -32 3
-56 15 -108 24 -108 5 0 9 -6 9 -14 0 -7 8 -24 18 -37 11 -13 22 -44 26 -69 4
-25 19 -79 33 -120 29 -83 35 -209 13 -276 -7 -19 -10 -43 -7 -53 2 -10 0 -26
-5 -36 -8 -14 -12 -15 -19 -4 -13 21 -11 -22 3 -76 9 -34 10 -48 1 -53 -7 -5
-9 -21 -4 -48 6 -30 4 -41 -5 -41 -7 0 -15 6 -18 14 -3 7 -11 13 -17 13 -7 0
-4 -9 7 -21 10 -12 17 -24 14 -26 -3 -3 4 -11 15 -17 11 -6 36 -23 55 -37 89
-66 294 -146 400 -154 53 -5 60 -3 60 12 0 37 -13 62 -33 65 -14 2 -25 17 -37
56 -10 29 -24 60 -33 70 -19 21 -57 120 -57 149 0 12 4 24 9 27 11 7 3 46 -15
66 -19 22 -28 94 -16 117 6 11 13 43 16 72 2 29 7 55 10 58 10 10 36 -19 36
-39 0 -16 5 -18 36 -12 43 8 58 -7 41 -43 -10 -23 -27 -31 -27 -13 0 6 -4 10
-10 10 -19 0 -10 -38 10 -43 11 -3 20 -12 20 -21 0 -9 7 -33 16 -54 10 -20 17
-44 18 -52 1 -8 8 -15 16 -15 11 0 15 11 15 37 0 20 6 43 13 49 6 7 12 23 12
35 0 12 6 27 14 33 12 10 12 16 1 38 -7 14 -11 31 -9 38 3 7 -10 19 -29 29
-43 20 -54 20 -73 1 -9 -8 -21 -15 -27 -15 -8 0 -7 3 2 9 7 5 10 14 7 20 -4 6
-2 11 5 11 7 0 -8 13 -32 29 -24 16 -47 27 -53 24 -5 -3 -6 -2 -3 4 3 5 -26
41 -65 79 -39 38 -68 64 -64 57 4 -8 0 -11 -15 -8 -32 6 -35 13 -8 24 l24 10
-27 0 c-23 1 -26 -2 -22 -25 3 -18 -2 -34 -16 -49 -14 -15 -18 -25 -11 -29 7
-5 7 -11 -1 -20 -11 -11 -15 -10 -25 3 -7 9 -13 24 -13 34 0 10 -7 20 -15 23
-8 4 -15 17 -15 29 0 13 -4 27 -10 30 -5 3 -10 17 -10 29 0 13 -7 29 -15 36
-8 7 -15 21 -15 31 0 26 -40 131 -57 150 -8 9 -16 31 -18 49 -7 53 -13 65 -46
84 -20 12 -29 14 -24 6z m442 -892 c-3 -8 -6 -5 -6 6 -1 11 2 17 5 13 3 -3 4
-12 1 -19z m-327 -198 c0 -5 -2 -10 -4 -10 -3 0 -8 5 -11 10 -3 6 -1 10 4 10
6 0 11 -4 11 -10z"/>
<path d="M5170 4070 c0 -5 7 -10 16 -10 8 0 12 5 9 10 -3 6 -10 10 -16 10 -5
0 -9 -4 -9 -10z"/>
<path d="M5116 4051 c-4 -5 -2 -12 3 -15 5 -4 12 -2 15 3 4 5 2 12 -3 15 -5 4
-12 2 -15 -3z"/>
<path d="M5100 4013 c0 -5 5 -15 10 -23 8 -12 10 -11 10 8 0 12 -4 22 -10 22
-5 0 -10 -3 -10 -7z"/>
<path d="M6550 3923 c-49 -35 -92 -68 -96 -75 -4 -6 -3 -8 3 -5 6 4 13 0 17
-8 3 -8 1 -17 -5 -20 -5 -4 -7 -10 -4 -15 3 -5 1 -11 -4 -14 -5 -4 -7 -21 -4
-39 2 -17 4 -44 4 -59 -1 -15 3 -29 9 -33 5 -3 10 -16 10 -29 0 -29 10 -39 27
-25 10 9 13 7 13 -10 0 -12 -6 -21 -15 -21 -11 0 -15 -11 -15 -35 0 -22 -6
-38 -15 -41 -19 -8 -20 -48 -1 -63 17 -14 26 5 26 55 0 50 17 42 18 -8 3 -94
0 -223 -3 -227 -3 -2 -12 2 -20 9 -9 8 -27 15 -41 16 -21 2 -24 -1 -24 -31 0
-19 5 -37 10 -40 6 -4 7 -12 3 -18 -5 -7 -9 -25 -10 -42 0 -16 -4 -47 -8 -68
-8 -45 2 -94 15 -81 18 18 38 101 28 118 -5 9 -5 23 0 33 5 10 8 23 5 29 -2 6
3 11 12 11 8 0 15 -6 15 -14 0 -7 -4 -13 -10 -13 -5 0 -10 -4 -10 -10 0 -5 7
-10 15 -10 12 0 14 -7 9 -27 -4 -16 -11 -33 -15 -39 -11 -13 11 -64 27 -64 15
0 25 -38 12 -46 -5 -3 -11 -4 -12 -3 -1 2 -10 15 -19 29 l-17 24 0 -29 c0 -23
7 -34 30 -47 36 -20 60 -15 53 13 -3 10 -1 19 5 19 11 0 31 78 32 120 0 53 8
116 19 142 5 15 7 30 2 32 -4 3 -7 22 -5 42 1 21 -2 45 -6 53 -4 9 -13 44 -19
78 -10 53 -9 67 4 93 9 17 16 50 17 75 0 28 6 46 15 49 10 4 11 10 4 25 -6 10
-7 21 -4 25 4 4 8 23 10 43 1 19 7 41 13 48 6 7 11 48 12 91 0 44 5 84 9 89 5
7 0 11 -12 11 -11 0 -60 -29 -109 -63z m5 -863 c-3 -5 -10 -10 -16 -10 -5 0
-9 5 -9 10 0 6 7 10 16 10 8 0 12 -4 9 -10z"/>
<path d="M6870 3971 c0 -6 4 -13 10 -16 6 -3 7 1 4 9 -7 18 -14 21 -14 7z"/>
<path d="M5113 3953 c3 -10 11 -40 18 -68 15 -62 14 -61 35 -41 12 12 13 20 5
30 -6 7 -7 17 -3 21 4 5 1 5 -5 1 -7 -4 -13 -2 -13 3 0 6 5 11 10 11 7 0 7 8
-1 23 -20 37 -54 52 -46 20z"/>
<path d="M5835 3919 c-4 -6 -5 -12 -2 -15 2 -3 7 2 10 11 7 17 1 20 -8 4z"/>
<path d="M5855 3880 c-3 -5 -1 -10 4 -10 6 0 11 5 11 10 0 6 -2 10 -4 10 -3 0
-8 -4 -11 -10z"/>
<path d="M7426 3557 c3 -10 9 -15 12 -12 3 3 0 11 -7 18 -10 9 -11 8 -5 -6z"/>
<path d="M7297 3533 c-12 -12 -7 -43 7 -43 9 0 12 8 8 25 -5 27 -6 28 -15 18z"/>
<path d="M6080 3452 c0 -11 7 -25 16 -33 14 -11 15 -9 12 16 -3 32 -28 47 -28
17z"/>
<path d="M7280 3439 c0 -9 10 -20 22 -26 19 -8 20 -10 4 -16 -10 -4 -15 -3
-11 3 3 6 1 10 -5 10 -7 0 -9 -7 -6 -16 3 -9 6 -17 6 -19 0 -2 9 -1 20 2 18 5
24 15 21 36 0 4 4 7 9 7 6 0 10 9 10 20 0 17 -6 20 -35 18 -25 -1 -35 -7 -35
-19z m43 -6 c-7 -2 -19 -2 -25 0 -7 3 -2 5 12 5 14 0 19 -2 13 -5z"/>
<path d="M7216 3431 c-4 -5 -2 -12 3 -15 5 -4 12 -2 15 3 4 5 2 12 -3 15 -5 4
-12 2 -15 -3z"/>
<path d="M6086 3381 c-4 -7 -5 -15 -2 -18 9 -9 19 4 14 18 -4 11 -6 11 -12 0z"/>
<path d="M6446 3367 c-8 -32 -7 -77 2 -77 17 0 32 26 32 56 0 38 -25 53 -34
21z"/>
<path d="M6120 3340 c0 -5 5 -10 10 -10 6 0 10 5 10 10 0 6 -4 10 -10 10 -5 0
-10 -4 -10 -10z"/>
<path d="M6857 3143 c-3 -4 -7 -21 -8 -38 -3 -22 0 -30 11 -30 9 0 16 11 18
29 4 28 -11 55 -21 39z"/>
<path d="M7325 3079 c3 -9 -3 -23 -16 -35 -14 -12 -19 -13 -14 -4 6 11 5 12
-4 4 -7 -6 -9 -18 -4 -30 9 -21 33 -31 33 -13 0 5 4 8 9 5 11 -7 23 22 14 36
-3 7 -1 8 5 4 19 -11 14 3 -9 27 -12 13 -18 16 -14 6z"/>
<path d="M7288 3063 c7 -3 16 -2 19 1 4 3 -2 6 -13 5 -11 0 -14 -3 -6 -6z"/>
<path d="M6175 3037 c-16 -13 -15 -14 13 -9 18 2 29 8 26 13 -7 12 -17 11 -39
-4z"/>
<path d="M6855 3040 c-3 -5 1 -10 9 -10 9 0 16 5 16 10 0 6 -4 10 -9 10 -6 0
-13 -4 -16 -10z"/>
<path d="M7328 2987 c-7 -8 -20 -12 -28 -9 -11 3 -12 2 -4 -8 9 -9 20 -7 50 9
31 16 34 20 17 21 -12 0 -28 -6 -35 -13z"/>
<path d="M7062 2923 c5 -25 28 -28 28 -4 0 12 -6 21 -16 21 -9 0 -14 -7 -12
-17z"/>
<path d="M7110 2930 c0 -5 5 -10 10 -10 6 0 10 5 10 10 0 6 -4 10 -10 10 -5 0
-10 -4 -10 -10z"/>
</g>
</svg>
