<?xml version="1.0" encoding="UTF-8"?>
<svg version="1.1" xmlns="http://www.w3.org/2000/svg" width="1080" height="1080">
<path d="M0 0 C356.4 0 712.8 0 1080 0 C1080 356.4 1080 712.8 1080 1080 C723.6 1080 367.2 1080 0 1080 C0 723.6 0 367.2 0 0 Z " fill="#000000" transform="translate(0,0)"/>
<path d="M0 0 C2.84942978 0.00316036 5.69781629 -0.02042622 8.54711914 -0.0456543 C21.76636537 -0.09043739 34.51026306 1.19528456 47.54907227 3.31567383 C48.40270355 3.45140305 49.25633484 3.58713226 50.13583374 3.72697449 C82.10870777 8.85442246 114.91610102 21.95075847 139.54907227 43.31567383 C140.88518555 44.43522461 140.88518555 44.43522461 142.24829102 45.57739258 C158.1752502 59.37187187 170.09288672 78.03638409 172.54907227 99.31567383 C173.95828733 120.93903939 166.60476738 140.84379311 152.54907227 157.31567383 C127.51874272 185.59647566 91.95764062 200.83414774 55.54907227 208.31567383 C54.19732405 208.61300788 52.84574941 208.91113257 51.49438477 209.21020508 C-5.39830191 221.01921877 -71.96231474 213.0629023 -121.13842773 181.19067383 C-122.92804409 179.9251594 -124.69998926 178.63418356 -126.45092773 177.31567383 C-127.34295898 176.64407227 -128.23499023 175.9724707 -129.15405273 175.28051758 C-148.73826809 159.86494235 -164.31440787 140.61067585 -168.45092773 115.31567383 C-169.78710471 94.87873747 -164.68721724 75.29182182 -151.27514648 59.37817383 C-150.6731543 58.69754883 -150.07116211 58.01692383 -149.45092773 57.31567383 C-148.79737305 56.53192383 -148.14381836 55.74817383 -147.47045898 54.94067383 C-117.10687918 19.54415092 -67.08491304 4.26484463 -22.07940674 0.49490356 C-14.72867551 -0.00632533 -7.36478252 -0.01697969 0 0 Z " fill="#FE2B8C" transform="translate(237.450927734375,465.684326171875)"/>
<path d="M0 0 C91.71985294 0 91.71985294 0 112.67578125 19.57421875 C120.28269653 27.51353705 124.82302317 36.9752556 129 47 C129.680625 46.401875 130.36125 45.80375 131.0625 45.1875 C138.69741032 39.50192848 145.60331273 39.04115436 155 40 C161.65562543 41.79412511 167.54203742 45.41059432 171.4765625 51.15625 C175.02706434 57.42417504 175.99098729 62.87480141 175 70 C174.19411807 72.88520936 173.32023256 75.68827057 172.265625 78.4921875 C171.70340225 81.21831961 171.70340225 81.21831961 173.921875 83.8203125 C174.60765625 84.53960938 175.2934375 85.25890625 176 86 C176.54527344 85.34773437 177.09054687 84.69546875 177.65234375 84.0234375 C185.33490117 75.11955044 193.5771154 67.93905912 205.70703125 66.73022461 C208.5608634 66.63521264 211.39512607 66.63914509 214.25 66.6875 C215.21679688 66.68427734 216.18359375 66.68105469 217.1796875 66.67773438 C222.01991676 66.71440278 225.52115327 67.07932668 230 69 C232.45569301 68.672571 232.45569301 68.672571 235 68 C243.9400048 67.39389798 252.69772616 68.1351931 261.5625 69.25 C262.502146 69.35924805 263.44179199 69.46849609 264.40991211 69.58105469 C269.97032443 70.34194796 273.66416627 71.37392187 278 75 C279.47985377 77.95970754 279.151879 80.63041957 279.17700195 83.93383789 C279.18357315 84.64809433 279.19014435 85.36235077 279.19691467 86.09825134 C279.21668854 88.47305411 279.22833071 90.84779293 279.23828125 93.22265625 C279.24235678 94.03807829 279.2464323 94.85350033 279.25063133 95.69363213 C279.27152774 100.02500023 279.28580354 104.35633649 279.29516602 108.68774414 C279.30612698 113.1186892 279.34039407 117.54911754 279.38033772 121.97988224 C279.40678592 125.41963993 279.41488338 128.85928103 279.41844749 132.29913139 C279.42325579 133.92906549 279.43470037 135.55899649 279.45348549 137.18882942 C279.63603958 154.10460695 277.67289335 171.73201834 265.8125 184.8125 C251.68562598 197.7880649 233.12112389 198.68905727 215 198 C202.48449775 197.23542257 188.67660205 195.60142405 179 187 C174.53715164 179.54174833 177.54101416 170.87738029 179.48876953 163.02856445 C179.66649902 162.32304443 179.84422852 161.61752441 180.02734375 160.890625 C180.19371338 160.21628418 180.36008301 159.54194336 180.53149414 158.84716797 C180.92549958 157.29373121 181.36042641 155.75075506 181.8046875 154.2109375 C182.22255563 151.94724277 182.22255563 151.94724277 180.85546875 150.0859375 C180.30503906 149.52132812 179.75460937 148.95671875 179.1875 148.375 C177.18325482 146.2707806 175.63128671 144.44693006 174 142 C173.98598145 143.41478638 173.98598145 143.41478638 173.97167969 144.8581543 C173.9275569 148.37175542 173.86589795 151.88415253 173.79248047 155.3972168 C173.7643283 156.91500685 173.7430851 158.43294193 173.72900391 159.95092773 C173.70749277 162.13861021 173.66080772 164.32455965 173.609375 166.51171875 C173.58842773 167.82615967 173.56748047 169.14060059 173.54589844 170.49487305 C172.9119723 174.56521188 171.96968066 176.18364871 169 179 C163.23971386 182.26077193 156.28548489 181.37198919 149.85327148 181.37060547 C147.57264616 181.37498054 145.29395559 181.4113411 143.01367188 181.44921875 C141.5520899 181.45508763 140.0904988 181.45905655 138.62890625 181.4609375 C136.6499939 181.47326416 136.6499939 181.47326416 134.63110352 181.48583984 C130.40167134 180.91994392 128.28424692 179.67717445 125 177 C122.59778965 173.39668447 122.73390951 171.7238958 122.69702148 167.43652344 C122.68436249 166.44323784 122.68436249 166.44323784 122.67144775 165.42988586 C122.64565115 163.23970823 122.63352013 161.04966575 122.62109375 158.859375 C122.60491292 157.33342429 122.5877323 155.80748389 122.56959534 154.28155518 C122.52387859 150.25983473 122.48910406 146.23810019 122.45739746 142.21624756 C122.40557808 135.79334668 122.34000783 129.37059973 122.26918221 122.94788361 C122.24648751 120.71069146 122.23012152 118.4735181 122.21446228 116.23626709 C122.20104044 114.85119429 122.18742435 113.46612336 122.17358398 112.08105469 C122.16407211 110.87987 122.15456024 109.6786853 122.14476013 108.44110107 C121.99595324 104.90380416 121.5590009 101.49403029 121 98 C120.57589844 98.56847656 120.15179687 99.13695312 119.71484375 99.72265625 C112.76642505 108.87013493 105.96976576 115.18913362 96 121 C95.319375 121.40347656 94.63875 121.80695313 93.9375 122.22265625 C81.37252135 129.10721747 66.91907413 129 53 129 C53 145.83 53 162.66 53 180 C35.51 180 18.02 180 0 180 C0 120.6 0 61.2 0 0 Z " fill="#FCFBF8" transform="translate(670,470)"/>
<path d="M0 0 C1.04607422 0.85658203 1.04607422 0.85658203 2.11328125 1.73046875 C0.57389425 6.56854219 -2.20024972 9.8885174 -5.38671875 13.73046875 C-6.47631476 15.06684939 -7.56483882 16.40410466 -8.65234375 17.7421875 C-9.46928711 18.74451416 -9.46928711 18.74451416 -10.30273438 19.76708984 C-12.6316635 22.653842 -14.88826444 25.59336921 -17.13671875 28.54296875 C-21.31128264 34.00097461 -25.56781628 39.38612854 -29.88671875 44.73046875 C-32.7813875 43.03698907 -35.50415993 41.304606 -38.13671875 39.23046875 C-47.2557287 32.63458355 -58.06998264 32.57294347 -68.88671875 32.73046875 C-69.21671875 34.05046875 -69.54671875 35.37046875 -69.88671875 36.73046875 C-69.33628906 36.8284375 -68.78585937 36.92640625 -68.21875 37.02734375 C-66.36747389 37.36028643 -64.51737292 37.69978035 -62.66796875 38.04296875 C-59.79533521 38.56526576 -56.92233719 39.06084194 -54.04296875 39.54296875 C-35.81530438 42.68438617 -15.97117655 47.43698029 -3.88671875 62.73046875 C-2.16939527 65.36682361 -0.51642828 68.03922386 1.11328125 70.73046875 C1.11739014 70.12050049 1.12149902 69.51053223 1.12573242 68.88208008 C1.158757 66.10141083 1.22940693 63.32290718 1.30078125 60.54296875 C1.30948242 59.1034082 1.30948242 59.1034082 1.31835938 57.63476562 C1.45833675 53.13993646 1.61438547 50.47263561 4.1640625 46.6796875 C10.74783502 42.32829347 18.08166298 42.42232965 25.71875 42.4296875 C26.71981277 42.42540237 27.72087555 42.42111725 28.75227356 42.41670227 C30.86259204 42.41098364 32.97293022 42.41044042 35.08325195 42.41479492 C38.27395195 42.41794229 41.46371204 42.39450768 44.65429688 42.36914062 C61.78702654 42.31519114 77.10870326 43.31700794 90.11328125 55.73046875 C97.38381469 63.61750942 99.81081203 73.99294524 99.43359375 84.4921875 C98.28051283 96.14955438 94.29872326 103.77043614 87.11328125 112.73046875 C87.47156006 113.50237549 87.82983887 114.27428223 88.19897461 115.06958008 C89.52902957 117.93715353 90.85764949 120.80538616 92.18530273 123.67407227 C92.75992422 124.91489806 93.33511491 126.15546042 93.91088867 127.39575195 C94.73896934 129.17980496 95.56482605 130.96488969 96.390625 132.75 C96.88812256 133.82354736 97.38562012 134.89709473 97.89819336 136.00317383 C99.92488888 140.55214222 101.00472374 144.75970789 100.11328125 149.73046875 C97.93753709 152.42152073 96.20262269 154.18579803 93.11328125 155.73046875 C88.47600418 156.01340425 83.83796486 156.04419213 79.19287109 156.08056641 C77.64681918 156.09709306 76.10084264 156.12434019 74.55517578 156.16259766 C72.31893542 156.21763032 70.0844844 156.2392797 67.84765625 156.25390625 C66.82076691 156.28791031 66.82076691 156.28791031 65.77313232 156.32260132 C61.98015444 156.30606642 59.6261158 155.70253936 56.72119141 153.36499023 C54.10371816 150.72080808 52.94406995 148.8962054 51.73828125 145.41796875 C51.42117188 144.53496094 51.1040625 143.65195312 50.77734375 142.7421875 C50.44863281 141.74638672 50.44863281 141.74638672 50.11328125 140.73046875 C49.96632813 141.61798828 49.96632813 141.61798828 49.81640625 142.5234375 C48.85976149 147.57881023 47.8656139 150.9781361 44.11328125 154.73046875 C39.6383678 156.96792548 33.16048885 156.04166654 28.19287109 156.08056641 C26.64681918 156.09709306 25.10084264 156.12434019 23.55517578 156.16259766 C21.31893542 156.21763032 19.0844844 156.2392797 16.84765625 156.25390625 C15.82076691 156.28791031 15.82076691 156.28791031 14.77313232 156.32260132 C9.16277803 156.29814384 6.91162819 154.5482317 3.11328125 150.73046875 C1.93858681 148.38107987 1.91293236 146.7797367 1.796875 144.16015625 C1.7340332 142.81630859 1.7340332 142.81630859 1.66992188 141.4453125 C1.63060547 140.50816406 1.59128906 139.57101562 1.55078125 138.60546875 C1.50759766 137.66058594 1.46441406 136.71570313 1.41992188 135.7421875 C1.31369053 133.40509783 1.21164949 131.06790045 1.11328125 128.73046875 C0.77296875 129.34792969 0.43265625 129.96539063 0.08203125 130.6015625 C-9.38001615 147.13498042 -23.14670906 156.81963201 -41.01171875 163.10546875 C-62.64165431 168.86221106 -86.80401429 164.89761029 -106.01171875 153.94921875 C-115.91668176 147.65544017 -125.63408147 139.77935009 -131.88671875 129.73046875 C-126.38278553 124.13547781 -120.88968426 118.63483811 -114.9140625 113.5390625 C-112.47243241 111.36088383 -110.18623843 109.05798867 -107.88671875 106.73046875 C-98.43280519 97.20372072 -98.43280519 97.20372072 -94.88671875 94.73046875 C-93.89671875 94.73046875 -92.90671875 94.73046875 -91.88671875 94.73046875 C-90.44921875 96.234375 -90.44921875 96.234375 -88.88671875 98.29296875 C-83.8072 104.36677627 -76.91293816 109.70241904 -68.88671875 110.73046875 C-61.92264204 111.22383658 -55.98183181 111.36159994 -49.88671875 107.73046875 C-47.82726859 106.09596751 -47.82726859 106.09596751 -46.88671875 103.73046875 C-46.84416503 101.39752348 -46.84060373 99.06334634 -46.88671875 96.73046875 C-48.54561221 96.34129191 -50.20452704 95.95220603 -51.86352539 95.56347656 C-53.36464734 95.21003736 -54.8651175 94.85382063 -56.36499023 94.49511719 C-60.60934583 93.4832635 -64.85645339 92.51914449 -69.12890625 91.6328125 C-86.49851088 87.93586023 -104.4311746 81.81866221 -114.76171875 66.35546875 C-120.54687181 56.53162394 -123.06536722 47.79272001 -123.07421875 36.48046875 C-123.08646484 35.67222656 -123.09871094 34.86398437 -123.11132812 34.03125 C-123.14397732 20.42741679 -119.01704043 7.88771823 -109.88671875 -2.26953125 C-109.26667969 -2.97078125 -108.64664062 -3.67203125 -108.0078125 -4.39453125 C-79.93227558 -34.34177063 -28.70657425 -22.56903876 0 0 Z " fill="#FBFAF8" transform="translate(549.88671875,491.26953125)"/>
<path d="M0 0 C78.6028605 0 78.6028605 0 97.1875 17.75 C107.52139801 28.50045824 112.67341849 41.0630321 112.40014648 56.04833984 C111.6890371 72.5167617 105.12667442 85.82405686 93 97 C82.24553388 105.2801303 70.44632679 110.15575353 56.8515625 110.09765625 C55.64838379 110.09515869 54.44520508 110.09266113 53.20556641 110.09008789 C50.93818604 110.07643188 50.93818604 110.07643188 48.625 110.0625 C43.79875 110.041875 38.9725 110.02125 34 110 C34 126.83 34 143.66 34 161 C22.78 161 11.56 161 0 161 C0 107.87 0 54.74 0 0 Z " fill="#F2AF01" transform="translate(679,479)"/>
<path d="M0 0 C-1.35646497 2.9016976 -2.91189179 5.36147472 -4.86328125 7.8984375 C-5.42080078 8.62546875 -5.97832031 9.3525 -6.55273438 10.1015625 C-7.42381836 11.22691406 -7.42381836 11.22691406 -8.3125 12.375 C-8.88162109 13.1175 -9.45074219 13.86 -10.03710938 14.625 C-13.27110709 18.82808314 -16.57471001 22.95134579 -20 27 C-25.02228408 25.89785287 -29.77495755 23.92771615 -34.58984375 22.15625 C-40.29066279 20.22332625 -45.46561454 19.76532648 -51.4375 19.6875 C-52.17548828 19.65849609 -52.91347656 19.62949219 -53.67382812 19.59960938 C-58.91285259 19.53906954 -61.84345076 20.53727969 -66 24 C-67.27545437 26.55090873 -67.27572804 28.52665846 -67.375 31.375 C-67.42398438 32.33148437 -67.47296875 33.28796875 -67.5234375 34.2734375 C-67.21730019 37.15053221 -67.21730019 37.15053221 -64.97265625 39.22265625 C-61.44816417 41.32994127 -58.03741561 42.25236324 -54.0625 43.0625 C-53.31468262 43.2267749 -52.56686523 43.3910498 -51.79638672 43.56030273 C-49.53366387 44.05429773 -47.26770491 44.52946757 -45 45 C-40.33062909 45.98802558 -35.66296091 46.98210975 -31 48 C-30.04609375 48.19980469 -29.0921875 48.39960937 -28.109375 48.60546875 C-16.06674835 51.44408789 -4.4364068 58.24471559 2.25 68.8125 C4.82894072 73.37206719 6.63474495 77.95150291 8 83 C8.17128418 83.62156982 8.34256836 84.24313965 8.51904297 84.88354492 C11.73191917 99.02183109 8.03172686 114.04087567 0.87109375 126.30859375 C-8.1559578 139.29322532 -21.33470421 147.80476723 -36.6875 151.37109375 C-57.20971431 154.81267692 -77.25537376 151.21492915 -94.4921875 139.2734375 C-96.71776443 137.57240732 -98.8690792 135.81778931 -101 134 C-102.04414063 133.12021484 -102.04414063 133.12021484 -103.109375 132.22265625 C-104.7504271 130.82776196 -106.37697562 129.41582977 -108 128 C-106.89513102 124.68539307 -106.12376914 124.03023894 -103.5 121.875 C-100.30302751 119.17075087 -97.31111752 116.36088223 -94.375 113.375 C-91.06285276 110.01693044 -87.69080166 106.93371414 -84 104 C-80.83523433 105.45291515 -78.2630161 107.26589771 -75.5 109.375 C-66.92666507 115.40528991 -57.48418329 118.40570055 -47 117 C-39.37660963 115.46766023 -34.02712931 113.22699201 -29.26953125 106.94140625 C-25.36811773 100.97524465 -25.53079646 95.55254112 -26.4375 88.6875 C-28.81558217 84.59719867 -32.64934802 84.17528767 -37 83 C-42.73604852 81.64215989 -48.49928087 80.40870528 -54.26904297 79.203125 C-67.36680484 76.4517352 -79.99151947 73.38049743 -90 64 C-90.63679688 63.40445313 -91.27359375 62.80890625 -91.9296875 62.1953125 C-100.69630751 53.12769266 -103.30205973 41.61777876 -103.31469727 29.37060547 C-103.09627075 17.93746347 -99.27057293 8.75562612 -92 0 C-91.47664063 -0.64710938 -90.95328125 -1.29421875 -90.4140625 -1.9609375 C-68.26725591 -26.70054096 -23.51633235 -17.2809412 0 0 Z " fill="#F2AF02" transform="translate(539,495)"/>
<path d="M0 0 C2.84942978 0.00316036 5.69781629 -0.02042622 8.54711914 -0.0456543 C21.76636537 -0.09043739 34.51026306 1.19528456 47.54907227 3.31567383 C48.40270355 3.45140305 49.25633484 3.58713226 50.13583374 3.72697449 C82.10870777 8.85442246 114.91610102 21.95075847 139.54907227 43.31567383 C140.88518555 44.43522461 140.88518555 44.43522461 142.24829102 45.57739258 C158.1752502 59.37187187 170.09288672 78.03638409 172.54907227 99.31567383 C173.95828733 120.93903939 166.60476738 140.84379311 152.54907227 157.31567383 C127.51874272 185.59647566 91.95764062 200.83414774 55.54907227 208.31567383 C54.19732405 208.61300788 52.84574941 208.91113257 51.49438477 209.21020508 C-5.39830191 221.01921877 -71.96231474 213.0629023 -121.13842773 181.19067383 C-122.92804409 179.9251594 -124.69998926 178.63418356 -126.45092773 177.31567383 C-127.34295898 176.64407227 -128.23499023 175.9724707 -129.15405273 175.28051758 C-148.73826809 159.86494235 -164.31440787 140.61067585 -168.45092773 115.31567383 C-169.78710471 94.87873747 -164.68721724 75.29182182 -151.27514648 59.37817383 C-150.6731543 58.69754883 -150.07116211 58.01692383 -149.45092773 57.31567383 C-148.79737305 56.53192383 -148.14381836 55.74817383 -147.47045898 54.94067383 C-117.10687918 19.54415092 -67.08491304 4.26484463 -22.07940674 0.49490356 C-14.72867551 -0.00632533 -7.36478252 -0.01697969 0 0 Z M-46.45092773 14.31567383 C-47.92287598 14.62118164 -47.92287598 14.62118164 -49.42456055 14.93286133 C-83.92251093 22.35719605 -120.02639603 39.54749627 -140.34448242 69.55932617 C-149.99389979 84.8766052 -154.55546474 102.97629671 -150.53686523 120.86254883 C-144.17379306 145.37726383 -126.84920446 164.47565963 -105.45092773 177.31567383 C-71.80012027 196.83838791 -35.74594512 204.53112071 2.92407227 204.56567383 C3.71287781 204.56668091 4.50168335 204.56768799 5.31439209 204.56872559 C18.58848641 204.55732317 31.4737992 203.74633356 44.54907227 201.31567383 C45.71696289 201.1068457 45.71696289 201.1068457 46.90844727 200.89379883 C83.10230551 194.24594731 121.81204544 177.22913324 143.37670898 146.11987305 C153.76597966 130.13138693 158.44557221 112.00908932 154.47314453 93.140625 C148.77782062 69.58490249 131.41530979 51.01583143 111.39916992 38.32788086 C95.71136371 28.77261218 79.17362563 22.31291487 61.54907227 17.31567383 C60.17368286 16.92025391 60.17368286 16.92025391 58.77050781 16.5168457 C53.08405189 14.91683553 47.44407814 13.61965214 41.61157227 12.69067383 C40.5490625 12.50891602 40.5490625 12.50891602 39.46508789 12.32348633 C11.65821233 7.76741767 -18.94460178 8.49270773 -46.45092773 14.31567383 Z " fill="#FBF9FA" transform="translate(237.450927734375,465.684326171875)"/>
<path d="M0 0 C2.51905735 2.18415377 4.80298102 4.49402522 7 7 C7.144375 5.700625 7.28875 4.40125 7.4375 3.0625 C7.875 -0.875 7.875 -0.875 9 -2 C11.39240433 -1.96043097 13.74033099 -1.85323629 16.125 -1.6875 C17.18859741 -1.61692383 17.18859741 -1.61692383 18.27368164 -1.54492188 C38.93637296 -0.06362704 38.93637296 -0.06362704 41 2 C41.10156097 3.42415312 41.1308342 4.85348152 41.1328125 6.28125 C41.13498779 7.24482422 41.13716309 8.20839844 41.1394043 9.20117188 C41.13465088 10.28978516 41.12989746 11.37839844 41.125 12.5 C41.12089111 13.64533203 41.11678223 14.79066406 41.11254883 15.97070312 C41.0919129 19.46239139 41.06203965 22.9537596 41.02606201 26.4453125 C41.00765134 28.24998973 40.99038704 30.05467883 40.97393799 31.859375 C40.91440383 38.30611026 40.8349141 44.75224008 40.73553467 51.19848633 C40.70369245 53.38706229 40.67649832 55.57571117 40.65411377 57.7644043 C40.62047982 60.89539771 40.56817933 64.02559489 40.51171875 67.15625 C40.50531876 68.08574463 40.49891876 69.01523926 40.49232483 69.97290039 C40.24580798 81.11101975 37.53525794 90.62585592 30 99 C23.67985793 104.73997278 16.12119097 106.88001039 8 109 C7.35804688 109.19464844 6.71609375 109.38929688 6.0546875 109.58984375 C-9.04596233 112.60423202 -28.12255631 109.14349755 -42 103 C-43.09406145 97.59982489 -42.76561676 93.45070891 -41.25 88.125 C-41.07984375 87.44953125 -40.9096875 86.7740625 -40.734375 86.078125 C-40.203125 84.1328125 -40.203125 84.1328125 -39 81 C-36 80 -36 80 -34.0546875 80.70703125 C-33.33539062 81.07183594 -32.61609375 81.43664062 -31.875 81.8125 C-22.77143026 86.04229366 -11.81905361 88.26699663 -2.05078125 85.01953125 C2.27352935 82.96785104 5.48506213 81.1889186 8 77 C8.25063732 73.33285151 8.25063732 73.33285151 8 70 C7.25556641 70.50660156 7.25556641 70.50660156 6.49609375 71.0234375 C5.81675781 71.46945312 5.13742187 71.91546875 4.4375 72.375 C3.77621094 72.81585937 3.11492188 73.25671875 2.43359375 73.7109375 C-5.95887245 78.15638508 -15.90304303 78.1572568 -25.06640625 76.41796875 C-35.4193274 73.19280555 -42.51478044 65.75645471 -47.84375 56.5546875 C-52.62815201 45.98374521 -52.65101103 32.44874744 -50.16015625 21.2109375 C-46.44518647 11.5295011 -39.42348342 3.46092656 -30 -1 C-21.06730882 -4.60352883 -8.48206456 -4.78080002 0 0 Z " fill="#F2AF02" transform="translate(899,549)"/>
<path d="M0 0 C204.93 0 409.86 0 621 0 C621 4.29 621 8.58 621 13 C416.07 13 211.14 13 0 13 C0 8.71 0 4.42 0 0 Z " fill="#F92A89" transform="translate(380,685)"/>
<path d="M0 0 C12.68112094 7.18767989 20.24559703 19.4503947 24.6796875 33.09375 C30.12516278 53.0297273 27.89827897 75.50091448 18.046875 93.546875 C15.52003388 97.92122484 12.61644409 101.6357659 8.9296875 105.09375 C7.5375 106.455 7.5375 106.455 6.1171875 107.84375 C-0.95901259 112.83871477 -8.38263163 115.45597836 -17.0703125 114.09375 C-20.3222908 113.13060169 -23.1362549 111.78483411 -26.0703125 110.09375 C-26.73804688 109.71605469 -27.40578125 109.33835937 -28.09375 108.94921875 C-39.96578167 101.18312689 -46.34871019 86.35220602 -49.3828125 73.03125 C-52.4753137 52.63263635 -50.13246647 30.56503792 -38.3203125 13.28125 C-29.12849613 1.28515067 -15.01674898 -6.72949747 0 0 Z " fill="#800F47" transform="translate(308.0703125,516.90625)"/>
<path d="M0 0 C1.56845087 -0.01155666 3.13686131 -0.03206648 4.70507812 -0.06152344 C16.77261869 -0.28662658 29.68885308 0.0120066 39.35253906 8.29516602 C45.2892562 14.06767608 47.94728851 18.67248243 48.68847656 27.12719727 C48.78959519 37.43118575 48.1783413 45.64243029 40.72753906 53.35766602 C38.94603214 55.01081109 37.5265478 56.20816164 35.35253906 57.29516602 C35.98738179 61.66267751 37.62508374 65.31544021 39.54785156 69.24047852 C40.1873968 70.57761179 40.82671299 71.91485463 41.46582031 73.25219727 C42.47413974 75.3452613 43.4855862 77.43671696 44.50146484 79.52612305 C45.48377898 81.55193845 46.45395323 83.58322048 47.42285156 85.61547852 C47.7311087 86.24052277 48.03936584 86.86556702 48.35696411 87.509552 C50.46580508 91.95536795 50.46580508 91.95536795 49.35253906 95.29516602 C40.44253906 95.29516602 31.53253906 95.29516602 22.35253906 95.29516602 C20.70253906 91.33516602 19.05253906 87.37516602 17.35253906 83.29516602 C15.94776709 80.05970716 14.53598904 76.83017183 13.10253906 73.60766602 C12.75191406 72.81166992 12.40128906 72.01567383 12.04003906 71.19555664 C10.60461591 67.48582588 10.60461591 67.48582588 8.35253906 64.29516602 C6.5036196 64.06152721 4.64765875 63.88212967 2.79003906 63.73266602 C1.778125 63.64887695 0.76621094 63.56508789 -0.27636719 63.47875977 C-1.45005859 63.38788086 -1.45005859 63.38788086 -2.64746094 63.29516602 C-2.57527344 64.18075195 -2.50308594 65.06633789 -2.42871094 65.97875977 C-1.69516284 75.76958929 -1.53933235 85.47949357 -1.64746094 95.29516602 C-6.12661422 95.3240294 -10.60574385 95.34191789 -15.08496094 95.35766602 C-16.36435547 95.36604492 -17.64375 95.37442383 -18.96191406 95.38305664 C-20.17685547 95.3862793 -21.39179687 95.38950195 -22.64355469 95.39282227 C-23.76947021 95.39805908 -24.89538574 95.4032959 -26.05541992 95.40869141 C-28.64746094 95.29516602 -28.64746094 95.29516602 -29.64746094 94.29516602 C-29.74801207 91.43962021 -29.78361637 88.60822579 -29.77685547 85.75219727 C-29.77860779 84.85632904 -29.78036011 83.96046082 -29.78216553 83.03744507 C-29.7865854 80.06083264 -29.78364558 77.0842791 -29.78027344 74.10766602 C-29.78094644 72.04882801 -29.78191643 69.98999008 -29.78317261 67.93115234 C-29.78464976 63.61009975 -29.78249445 59.28906778 -29.77783203 54.96801758 C-29.77213474 49.41580056 -29.77541365 43.86363187 -29.7814045 38.31141663 C-29.78500963 34.0582238 -29.78387174 29.80504253 -29.7812767 25.55184937 C-29.7806073 23.50401809 -29.78143631 21.45618578 -29.78375626 19.40835571 C-29.786282 16.55158694 -29.7824433 13.69489759 -29.77685547 10.83813477 C-29.7788797 9.98303314 -29.78090393 9.12793152 -29.7829895 8.24691772 C-29.76172333 2.4094284 -29.76172333 2.4094284 -28.64746094 1.29516602 C-19.18414685 0.04319838 -9.53372951 0.04868203 0 0 Z " fill="#F2AF02" transform="translate(590.6474609375,542.704833984375)"/>
<path d="M0 0 C15.17921365 13.70640353 26.22695283 31.48583295 27.70532227 52.26513672 C27.99153885 60.62525375 27.1128053 68.3546682 24.42407227 76.31201172 C24.09536133 77.28525391 23.76665039 78.25849609 23.42797852 79.26123047 C12.79867282 107.39762789 -13.26210571 125.19485261 -39.59545898 137.12841797 C-88.59589569 158.78916147 -151.58767822 160.17943697 -201.8840332 141.45263672 C-218.80462109 134.88612697 -234.69253114 127.0991309 -248.57592773 115.31201172 C-249.08994141 114.88694336 -249.60395508 114.461875 -250.13354492 114.02392578 C-261.44511452 104.61060331 -270.49131082 93.25120866 -275.57592773 79.31201172 C-275.96651367 78.26916016 -276.35709961 77.22630859 -276.75952148 76.15185547 C-282.3110589 59.42040532 -280.63357664 42.25047248 -272.89013672 26.48852539 C-269.00612504 19.01868961 -264.25071887 12.54701989 -258.57592773 6.31201172 C-257.7502832 5.38195312 -257.7502832 5.38195312 -256.90795898 4.43310547 C-235.7589957 -18.07356904 -204.15855456 -30.5480145 -174.57592773 -36.68798828 C-173.58947266 -36.89681641 -172.60301758 -37.10564453 -171.58666992 -37.32080078 C-114.28188387 -48.91754263 -45.13588164 -39.25328567 0 0 Z M-249.88842773 7.18701172 C-264.02371065 22.04873316 -271.40074546 39.68300248 -270.95092773 60.12451172 C-270.07028664 77.18378769 -261.25601967 91.33647057 -249.57592773 103.31201172 C-248.84245117 104.09576172 -248.10897461 104.87951172 -247.35327148 105.68701172 C-227.7510743 126.15350331 -199.23190044 136.5365424 -172.13842773 142.49951172 C-171.44885986 142.65452148 -170.75929199 142.80953125 -170.04882812 142.96923828 C-155.71830158 145.94793711 -141.11210841 146.72502462 -126.51342773 146.68701172 C-125.71532684 146.6864679 -124.91722595 146.68592407 -124.09494019 146.68536377 C-80.61101591 146.55021812 -37.0897851 133.19889387 -4.95092773 103.12451172 C3.84193519 94.06376588 9.56203682 83.27133998 13.42407227 71.31201172 C13.66899414 70.61978516 13.91391602 69.92755859 14.16625977 69.21435547 C18.3106863 55.84432192 15.06412938 40.35576235 9.23657227 28.06201172 C5.94491012 21.85447972 2.02087167 16.59783888 -2.57592773 11.31201172 C-3.33905273 10.30138672 -4.10217773 9.29076172 -4.88842773 8.24951172 C-32.96533939 -22.43920567 -78.354652 -33.4200596 -118.26342773 -35.43798828 C-165.62425976 -37.30777923 -214.5408016 -25.92960053 -249.88842773 7.18701172 Z " fill="#DE2281" transform="translate(365.575927734375,516.68798828125)"/>
<path d="M0 0 C13.29489891 7.38605495 19.09984657 17.40660883 23.375 31.875 C27.64563992 50.50274448 24.30305205 69.78051002 14.375 85.875 C9.93312153 92.04729814 3.79411585 96.83474314 -3.625 98.875 C-11.66685835 99.6928161 -18.78141892 97.31472173 -25.25 92.4375 C-35.47758104 82.79020724 -40.38981744 69.38247147 -40.96484375 55.62890625 C-41.01193756 53.33619007 -41.04435586 51.04312802 -41.0625 48.75 C-41.0728125 47.66565674 -41.083125 46.58131348 -41.09375 45.46411133 C-40.92723213 30.20344241 -36.39450158 17.02160148 -25.8203125 5.82421875 C-18.12193884 -1.01116996 -9.82474645 -3.04905924 0 0 Z " fill="#800F47" transform="translate(187.625,524.125)"/>
<path d="M0 0 C1.43352212 0.00015908 2.86704998 0.00585132 4.30053711 0.01586914 C5.43041298 0.01799156 5.43041298 0.01799156 6.58311462 0.02015686 C8.99807646 0.02577163 11.41294687 0.03832656 13.82788086 0.05102539 C15.46134307 0.05603849 17.09480672 0.06060173 18.72827148 0.06469727 C22.74067671 0.07574585 26.75301326 0.09302033 30.76538086 0.11352539 C30.87649435 5.71858375 30.78120516 11.27752382 30.4074707 16.87245178 C29.50632354 30.46620642 29.69113154 44.05922996 29.76538086 57.67602539 C29.79189453 62.65649155 29.81185327 67.63692207 29.82788086 72.61743164 C29.8361792 73.75886124 29.84447754 74.90029083 29.85302734 76.0763092 C29.85633057 77.11927658 29.85963379 78.16224396 29.86303711 79.23681641 C29.86827393 80.1573732 29.87351074 81.07792999 29.87890625 82.02638245 C29.76538086 84.11352539 29.76538086 84.11352539 28.76538086 85.11352539 C26.5588743 85.2136494 24.34915699 85.24433719 22.14038086 85.24633789 C21.47828613 85.24729462 20.81619141 85.24825134 20.1340332 85.24923706 C18.73185125 85.24991865 17.32966616 85.24806581 15.92749023 85.24389648 C13.77442373 85.23854785 11.62156584 85.24384209 9.46850586 85.25024414 C8.1091304 85.24958336 6.74975506 85.24830218 5.39038086 85.24633789 C4.14514648 85.24520996 2.89991211 85.24408203 1.61694336 85.24291992 C-1.23461914 85.11352539 -1.23461914 85.11352539 -2.23461914 84.11352539 C-2.35325137 82.07677452 -2.40204965 80.03593361 -2.42407227 77.99584961 C-2.44078979 76.68292938 -2.45750732 75.37000916 -2.47473145 74.01730347 C-2.48141342 73.30966732 -2.4880954 72.60203117 -2.49497986 71.87295151 C-2.5160346 69.65074929 -2.54306994 67.42869076 -2.57165527 65.20657349 C-2.63146873 60.46728082 -2.68333378 55.72791681 -2.73461914 50.98852539 C-2.79424424 45.54099793 -2.85724067 40.09353594 -2.92649841 34.64612198 C-2.95259455 32.4824357 -2.97371544 30.31874151 -2.99450684 28.15499878 C-3.0879129 20.04082041 -3.45568649 12.00368871 -4.12341309 3.91921997 C-4.16011108 2.99334076 -4.19680908 2.06746155 -4.23461914 1.11352539 C-3.23461914 0.11352539 -3.23461914 0.11352539 0 0 Z " fill="#F2AF02" transform="translate(804.234619140625,556.886474609375)"/>
<path d="M0 0 C4.41375 -0.12375 8.8275 -0.2475 13.375 -0.375 C14.74575684 -0.42962402 16.11651367 -0.48424805 17.52880859 -0.54052734 C25.84462518 -0.65259385 31.53807619 0.60017916 38 6 C42.07892475 10.36611723 43.31602343 14.07984154 43.5625 20.0625 C43.23221274 27.15028608 41.30288623 30.69711377 36.25 35.75 C28.31584541 41.24287625 21.38221701 41.39543486 12 41.1875 C6.06 41.0946875 6.06 41.0946875 0 41 C0 27.47 0 13.94 0 0 Z " fill="#FCFAF4" transform="translate(713,514)"/>
<path d="M0 0 C4.34671814 2.51280866 6.9002883 5.83018877 8.6875 10.5 C9.60697819 15.30895229 9.19645112 18.51845141 6.9375 22.875 C4.03955909 26.25593106 1.91212114 28.09179295 -2.3125 29.5 C-10.61043634 30.13083727 -17.12546044 30.02592805 -23.6875 24.5 C-26.89783649 20.54881663 -26.76794706 16.18828229 -26.72265625 11.296875 C-26.05472984 6.742253 -23.81021456 4.3287968 -20.3125 1.5 C-14.24383072 -2.77565336 -6.74909893 -2.87059973 0 0 Z " fill="#F2B004" transform="translate(827.3125,520.5)"/>
<path d="M0 0 C3.320625 -0.0825 6.64125 -0.165 10.0625 -0.25 C11.09511963 -0.28641602 12.12773926 -0.32283203 13.19165039 -0.36035156 C19.37391578 -0.43429783 22.96462199 0.35738612 28 4 C30.94284124 7.41749305 31.54360033 10.49257938 31.34765625 15.0078125 C30.750902 18.42741551 29.269392 20.43200379 27 23 C22.35535417 25.89607328 18.47849145 26.38981218 13.125 26.1875 C12.43664062 26.17396484 11.74828125 26.16042969 11.0390625 26.14648438 C9.35902999 26.1114837 7.6794065 26.05768954 6 26 C6 29.96 6 33.92 6 38 C4.02 38 2.04 38 0 38 C0 25.46 0 12.92 0 0 Z " fill="#EFEFEF" transform="translate(708,732)"/>
<path d="M0 0 C22.25925926 0 22.25925926 0 29 5.6875 C30.61304291 9.41766173 30.52239978 13.00686194 30 17 C28.23806078 21.17301393 25.79820027 23.57056605 22 26 C19.04287706 26.47558077 16.17266936 26.38011635 13.1875 26.25 C12.00510742 26.22292969 12.00510742 26.22292969 10.79882812 26.1953125 C8.86535739 26.14844048 6.93251715 26.0767041 5 26 C5 29.96 5 33.92 5 38 C3.35 38 1.7 38 0 38 C0 25.46 0 12.92 0 0 Z " fill="#F7F7F7" transform="translate(805,732)"/>
<path d="M0 0 C4.18242266 3.88367819 6.34894515 7.2290612 7.0625 12.9375 C6.21796796 19.69375634 3.7307319 23.98634911 -1.375 28.4375 C-5.09217704 30.29608852 -9.31814308 29.87439228 -13.375 29.4375 C-17.7961042 27.3906925 -20.45241271 24.81232427 -22.67578125 20.421875 C-24.28128973 15.86545989 -24.31620128 11.65549481 -22.421875 7.19140625 C-17.33457739 -1.58257223 -9.42371161 -4.36282945 0 0 Z " fill="#FBFAF5" transform="translate(902.375,572.5625)"/>
<path d="M0 0 C1.98 0 3.96 0 6 0 C6.58394531 1.25876953 6.58394531 1.25876953 7.1796875 2.54296875 C7.74461372 3.75789526 8.3097358 4.9727307 8.875 6.1875 C9.17801025 6.83936279 9.48102051 7.49122559 9.79321289 8.1628418 C11.73262962 12.32217139 13.7001859 16.46676488 15.69140625 20.6015625 C16.14596191 21.54749268 16.60051758 22.49342285 17.06884766 23.46801758 C17.97545264 25.35222282 18.88524434 27.23489832 19.79833984 29.1159668 C20.21422363 29.98133057 20.63010742 30.84669434 21.05859375 31.73828125 C21.43298584 32.51212158 21.80737793 33.28596191 22.19311523 34.08325195 C23 36 23 36 23 38 C21.02 38 19.04 38 17 38 C16.32845067 36.71086513 15.66291141 35.41859796 15 34.125 C14.62875 33.40570312 14.2575 32.68640625 13.875 31.9453125 C13 30 13 30 13 28 C6.4 28 -0.2 28 -7 28 C-7.99 30.97 -8.98 33.94 -10 37 C-11 38 -11 38 -13.5625 38.0625 C-14.366875 38.041875 -15.17125 38.02125 -16 38 C-15.48189149 31.9720068 -12.88859961 27.14990443 -10.25 21.8125 C-9.3404582 19.9404381 -8.43159753 18.0680451 -7.5234375 16.1953125 C-7.08741211 15.30102539 -6.65138672 14.40673828 -6.20214844 13.48535156 C-4.0470427 9.02983239 -2.01203396 4.52178159 0 0 Z " fill="#F2F2F2" transform="translate(766,732)"/>
<path d="M0 0 C1.98 0 3.96 0 6 0 C10.54381032 8.86476345 14.89484695 17.79776716 19 26.875 C19.39759521 27.74866211 19.79519043 28.62232422 20.20483398 29.52246094 C20.57036377 30.3374707 20.93589355 31.15248047 21.3125 31.9921875 C21.63863281 32.71776855 21.96476563 33.44334961 22.30078125 34.19091797 C23 36 23 36 23 38 C21.02 38 19.04 38 17 38 C15.68 35.03 14.36 32.06 13 29 C6.73 29 0.46 29 -6 29 C-7.32 31.97 -8.64 34.94 -10 38 C-11.98 38 -13.96 38 -16 38 C-13.46523288 29.66363593 -9.91300395 21.85085526 -6.3125 13.9375 C-5.69946644 12.5815625 -5.08683305 11.225444 -4.47460938 9.86914062 C-2.98767883 6.57732842 -1.49535452 3.28799559 0 0 Z " fill="#F3F3F3" transform="translate(862,732)"/>
<path d="M0 0 C1.4540625 0.0309375 1.4540625 0.0309375 2.9375 0.0625 C4.73532337 3.92132693 6.53173769 7.7808058 8.3269043 11.64086914 C8.93655259 12.9512663 9.54657149 14.26149112 10.15698242 15.5715332 C11.03924812 17.46519425 11.92013573 19.3594913 12.80078125 21.25390625 C13.32969971 22.39029541 13.85861816 23.52668457 14.40356445 24.69750977 C14.90976318 25.80795654 15.41596191 26.91840332 15.9375 28.0625 C16.36438614 28.99085159 16.36438614 28.99085159 16.79989624 29.93795776 C18.09279429 32.82661488 18.9375 34.86049932 18.9375 38.0625 C17.2875 38.0625 15.6375 38.0625 13.9375 38.0625 C13.26595067 36.77336513 12.60041141 35.48109796 11.9375 34.1875 C11.56625 33.46820312 11.195 32.74890625 10.8125 32.0078125 C9.9375 30.0625 9.9375 30.0625 9.9375 28.0625 C3.3375 28.0625 -3.2625 28.0625 -10.0625 28.0625 C-10.7225 30.0425 -11.3825 32.0225 -12.0625 34.0625 C-12.70065344 35.40971283 -13.35575371 36.74997118 -14.0625 38.0625 C-16.0425 38.0625 -18.0225 38.0625 -20.0625 38.0625 C-18.6198122 33.47068629 -16.82925791 29.1063724 -14.83984375 24.73046875 C-14.53430069 24.05325272 -14.22875763 23.37603668 -13.91395569 22.67829895 C-13.27243252 21.25827611 -12.62946094 19.8389068 -11.98510742 18.42016602 C-10.99585655 16.24087209 -10.01227176 14.05908392 -9.02929688 11.87695312 C-8.40397917 10.49464083 -7.77833965 9.11247405 -7.15234375 7.73046875 C-6.85754623 7.0763652 -6.56274872 6.42226166 -6.25901794 5.74833679 C-3.67564692 0.0750132 -3.67564692 0.0750132 0 0 Z " fill="#F3F3F3" transform="translate(501.0625,731.9375)"/>
<path d="M0 0 C5.05580055 1.17997389 8.69777122 2.87043096 12 7 C12.8089688 11.0560022 12.65712153 14.92361898 12 19 C9.47353559 22.48242391 8.04319535 23.65226822 4 25 C1.28073978 25.09610691 -1.40664954 25.13933225 -4.125 25.125 C-4.86621094 25.12886719 -5.60742188 25.13273438 -6.37109375 25.13671875 C-11.8733402 25.1266598 -11.8733402 25.1266598 -13 24 C-13.27898825 20.36173954 -13.23177293 16.71019202 -13.25 13.0625 C-13.270625 12.03447266 -13.29125 11.00644531 -13.3125 9.94726562 C-13.31765625 8.96564453 -13.3228125 7.98402344 -13.328125 6.97265625 C-13.3374707 6.06781494 -13.34681641 5.16297363 -13.35644531 4.23071289 C-13.23881836 3.49457764 -13.12119141 2.75844238 -13 2 C-8.71491012 -0.85672658 -5.02851706 -0.48422757 0 0 Z " fill="#FDFBF7" transform="translate(600,563)"/>
<path d="M0 0 C1.98 0 3.96 0 6 0 C6 5.28 6 10.56 6 16 C12.93 16 19.86 16 27 16 C27 10.72 27 5.44 27 0 C28.98 0 30.96 0 33 0 C33 12.54 33 25.08 33 38 C31.02 38 29.04 38 27 38 C27 32.39 27 26.78 27 21 C20.07 21 13.14 21 6 21 C6 26.61 6 32.22 6 38 C4.02 38 2.04 38 0 38 C0 25.46 0 12.92 0 0 Z " fill="#EDEDED" transform="translate(627,732)"/>
<path d="M0 0 C3.526875 -0.12375 3.526875 -0.12375 7.125 -0.25 C7.85348145 -0.28641602 8.58196289 -0.32283203 9.33251953 -0.36035156 C14.40898844 -0.44571665 17.06915195 0.91147653 21 4 C21.61875 4.4125 22.2375 4.825 22.875 5.25 C24.82738532 8.28704384 24.60942558 11.57114397 24 15 C21.84199229 18.54529838 19.87549166 20.57218728 16 22 C13.20329698 22.14039674 10.53857997 22.18855578 7.75 22.125 C5.1925 22.08375 2.635 22.0425 0 22 C0 14.74 0 7.48 0 0 Z " fill="#020202" transform="translate(723,523)"/>
<path d="M0 0 C1.62109375 0.828125 1.62109375 0.828125 3.80859375 2.328125 C3.47859375 3.648125 3.14859375 4.968125 2.80859375 6.328125 C1.66390625 6.080625 1.66390625 6.080625 0.49609375 5.828125 C-4.37223131 5.16801313 -9.29053202 4.8556551 -14.19140625 5.328125 C-16.46667947 7.14423191 -16.46667947 7.14423191 -16.25390625 9.765625 C-15.38874882 12.61112329 -15.38874882 12.61112329 -12.31640625 13.890625 C-10.9504728 14.39505686 -9.57374379 14.87055683 -8.19140625 15.328125 C-6.27157921 15.96450221 -4.35503008 16.61083064 -2.44140625 17.265625 C-1.5184375 17.56339844 -0.59546875 17.86117187 0.35546875 18.16796875 C3.16592596 19.4971181 4.25649526 20.6601387 5.80859375 23.328125 C6.24666209 26.7596603 6.02032682 28.82231823 4.68359375 32.015625 C1.63777795 35.77213115 -1.14944679 37.09262475 -5.96875 37.6484375 C-12.87641189 37.90976141 -17.31223909 36.94607402 -23.19140625 33.328125 C-22.86140625 31.678125 -22.53140625 30.028125 -22.19140625 28.328125 C-17.44140625 30.203125 -17.44140625 30.203125 -15.19140625 31.328125 C-13.3819213 31.44989003 -11.56744354 31.50358292 -9.75390625 31.515625 C-8.78582031 31.52980469 -7.81773437 31.54398438 -6.8203125 31.55859375 C-3.95873898 31.51961951 -3.95873898 31.51961951 -1.19140625 29.328125 C-0.94109648 26.74432323 -0.94109648 26.74432323 -1.19140625 24.328125 C-2.3721875 23.94140625 -3.55296875 23.5546875 -4.76953125 23.15625 C-6.32703211 22.63082802 -7.88431238 22.10475187 -9.44140625 21.578125 C-10.21871094 21.32546875 -10.99601562 21.0728125 -11.796875 20.8125 C-16.0889966 19.345108 -19.45052206 18.14809746 -22.19140625 14.328125 C-22.9903885 11.24791065 -22.85019892 8.43386187 -22.19140625 5.328125 C-16.65367034 -1.66690983 -8.45713467 -2.59291829 0 0 Z " fill="#F0F0F0" transform="translate(463.19140625,732.671875)"/>
<path d="M0 0 C1.62109375 0.828125 1.62109375 0.828125 3.80859375 2.328125 C3.47859375 3.648125 3.14859375 4.968125 2.80859375 6.328125 C1.66390625 6.080625 1.66390625 6.080625 0.49609375 5.828125 C-4.37223131 5.16801313 -9.29053202 4.8556551 -14.19140625 5.328125 C-16.46667947 7.14423191 -16.46667947 7.14423191 -16.25390625 9.765625 C-15.38014107 12.63319614 -15.38014107 12.63319614 -12.19140625 13.953125 C-10.10218343 14.72419899 -7.99778864 15.3870238 -5.8671875 16.03515625 C2.10613137 18.49963663 2.10613137 18.49963663 4.80859375 22.328125 C6.21096301 25.78730251 5.81011649 27.32292976 4.74609375 30.953125 C2.383844 35.06801166 1.3454581 35.97502511 -3.19140625 37.328125 C-11.00447615 38.20723272 -16.49317271 37.45011487 -23.19140625 33.328125 C-22.86140625 31.678125 -22.53140625 30.028125 -22.19140625 28.328125 C-17.44140625 30.203125 -17.44140625 30.203125 -15.19140625 31.328125 C-13.3819213 31.44989003 -11.56744354 31.50358292 -9.75390625 31.515625 C-8.78582031 31.52980469 -7.81773437 31.54398438 -6.8203125 31.55859375 C-3.95873898 31.51961951 -3.95873898 31.51961951 -1.19140625 29.328125 C-0.94109648 26.74432323 -0.94109648 26.74432323 -1.19140625 24.328125 C-2.3721875 23.94140625 -3.55296875 23.5546875 -4.76953125 23.15625 C-6.32703211 22.63082802 -7.88431238 22.10475187 -9.44140625 21.578125 C-10.21871094 21.32546875 -10.99601563 21.0728125 -11.796875 20.8125 C-16.0889966 19.345108 -19.45052206 18.14809746 -22.19140625 14.328125 C-22.9903885 11.24791065 -22.85019892 8.43386187 -22.19140625 5.328125 C-16.65367034 -1.66690983 -8.45713467 -2.59291829 0 0 Z " fill="#F2F2F2" transform="translate(921.19140625,732.671875)"/>
<path d="M0 0 C2.35904399 1.78522248 3.35526125 2.97400762 4.3125 5.75 C2.3325 6.74 2.3325 6.74 0.3125 7.75 C-0.23664062 7.26402344 -0.78578125 6.77804687 -1.3515625 6.27734375 C-5.46100105 3.59040316 -9.95183921 4.12634569 -14.6875 4.75 C-18.85156148 6.79550389 -20.97943919 8.47984797 -22.6875 12.75 C-23.25561094 17.28750945 -23.22109148 21.43006319 -21.5 25.6875 C-18.83015884 28.72559512 -16.6820044 30.48087094 -12.57421875 31.03515625 C-7.36868699 31.23637849 -4.34656741 30.13370891 0.3125 27.75 C2.6875 28.5625 2.6875 28.5625 4.3125 29.75 C3.34153542 32.56579728 2.3566061 33.71750077 -0.0625 35.5 C-6.31517725 37.6560956 -12.75096634 37.6744643 -19.0625 35.6875 C-23.82623308 32.1714113 -28.2839045 27.64510109 -29.6875 21.75 C-30.482681 15.30157908 -29.71697364 9.97298622 -25.6875 4.75 C-18.51490884 -2.49988202 -9.43011152 -3.19664797 0 0 Z " fill="#F3F3F3" transform="translate(604.6875,733.25)"/>
<path d="M0 0 C1.98 0 3.96 0 6 0 C6 10.89 6 21.78 6 33 C12.6 33 19.2 33 26 33 C26 34.65 26 36.3 26 38 C17.42 38 8.84 38 0 38 C0 25.46 0 12.92 0 0 Z " fill="#EAEAEA" transform="translate(536,732)"/>
<path d="M0 0 C13.18436015 -0.49287328 13.18436015 -0.49287328 16.921875 1.765625 C19.10585321 4.1138121 19.66650917 4.86748866 19.5625 8 C19.36736381 10.99394664 19.06029622 11.91601597 17.25 14.4375 C12.0557545 18.04461493 6.08619348 17.07245468 0 17 C0 11.39 0 5.78 0 0 Z " fill="#0B0B0B" transform="translate(810,737)"/>
<path d="M0 0 C13.18538713 -0.49291167 13.18538713 -0.49291167 16.91796875 1.765625 C19.09319144 4.10001032 19.68596701 4.87848931 19.625 8 C19.63789062 8.66 19.65078125 9.32 19.6640625 10 C18.5975857 13.21197719 16.85403219 14.27306218 14 16 C9.27267379 16.52005789 4.77279398 16.1784222 0 16 C0 10.72 0 5.44 0 0 Z " fill="#030303" transform="translate(714,737)"/>
<path d="M0 0 C1.98 0 3.96 0 6 0 C6 12.54 6 25.08 6 38 C4.02 38 2.04 38 0 38 C0 25.46 0 12.92 0 0 Z " fill="#E6E6E6" transform="translate(681,732)"/>
<path d="M0 0 C12.9264619 -0.61881998 25.15365879 1.44417207 35.5 9.625 C36.325 10.40875 37.15 11.1925 38 12 C38 12.66 38 13.32 38 14 C37.07703125 13.75765625 36.1540625 13.5153125 35.203125 13.265625 C26.37460373 10.9853349 17.51962264 9.03175788 8.56542969 7.30761719 C7.75364258 7.15067383 6.94185547 6.99373047 6.10546875 6.83203125 C5.38512451 6.69514893 4.66478027 6.5582666 3.92260742 6.41723633 C2 6 2 6 -1 5 C-0.67 3.35 -0.34 1.7 0 0 Z " fill="#0D0D0D" transform="translate(481,523)"/>
<path d="M0 0 C3.17079015 1.58539507 3.82692625 4.80411145 5.125 7.9375 C5.40214844 8.58396484 5.67929687 9.23042969 5.96484375 9.89648438 C8 14.72371459 8 14.72371459 8 17 C3.05 17 -1.9 17 -7 17 C-5.11994266 10.98381653 -2.93937169 5.57467045 0 0 Z " fill="#0F0F0F" transform="translate(865,739)"/>
<path d="M0 0 C0.66 0 1.32 0 2 0 C4.31 5.61 6.62 11.22 9 17 C3.72 17 -1.56 17 -7 17 C-4.69 11.39 -2.38 5.78 0 0 Z " fill="#101010" transform="translate(768,739)"/>
<path d="M0 0 C2.84323425 2.46802739 4.15880824 5.08454454 5.6875 8.5 C6.34298828 9.93859375 6.34298828 9.93859375 7.01171875 11.40625 C8 14 8 14 8 17 C3.05 17 -1.9 17 -7 17 C-5.60863728 12.82591183 -4.20818227 9.08081438 -2.375 5.125 C-1.92898438 4.15820312 -1.48296875 3.19140625 -1.0234375 2.1953125 C-0.68570312 1.47085938 -0.34796875 0.74640625 0 0 Z " fill="#101010" transform="translate(500,739)"/>
<path d="M0 0 C1.52491998 3.04983996 1.23562548 5.6423369 1 9 C-0.1875 11 -0.1875 11 -2 12 C-5.34192692 11.75546876 -6.60543557 11.39456443 -9 9 C-9.54782609 2.97391304 -9.54782609 2.97391304 -7.875 0 C-5.01598528 -1.52480785 -3.03270286 -0.8570682 0 0 Z " fill="#050505" transform="translate(898,581)"/>
<path d="M0 0 C1.98 0 3.96 0 6 0 C6.38218767 1.65614657 6.71395102 3.32457024 7 5 C6 6 6 6 2.9375 6.0625 C1.4834375 6.0315625 1.4834375 6.0315625 0 6 C0 4.02 0 2.04 0 0 Z " fill="#1C1C1C" transform="translate(596,573)"/>
</svg>
